<?xml version="1.0" encoding="utf-8"?>
<!-- Generator: Adobe Illustrator 22.1.0, SVG Export Plug-In . SVG Version: 6.00 Build 0)  -->
<svg version="1.1" id="Layer_1" xmlns="http://www.w3.org/2000/svg" xmlns:xlink="http://www.w3.org/1999/xlink" x="0px" y="0px"
	 width="538.2px" height="180px" viewBox="0 0 538.2 180" style="enable-background:new 0 0 538.2 180;" xml:space="preserve">
<style type="text/css">
	.st0{clip-path:url(#SVGID_2_);}
	.st1{fill:#FFD800;}
	.st2{clip-path:url(#SVGID_4_);fill:#FFFFFF;}
	.st3{clip-path:url(#SVGID_4_);fill:#FFD800;}
	.st4{fill:#FFFFFF;}
	.st5{clip-path:url(#SVGID_6_);fill:#FFFFFF;}
	.st6{clip-path:url(#SVGID_8_);fill:#FFD800;}
	.st7{clip-path:url(#SVGID_10_);fill:#FFFFFF;}
	.st8{clip-path:url(#SVGID_10_);fill:#FFD800;}
	.st9{clip-path:url(#SVGID_12_);fill:#FFFFFF;}
	.st10{clip-path:url(#SVGID_14_);fill:#FFD800;}
</style>
<g>
	<defs>
		<rect id="SVGID_1_" width="538.2" height="180"/>
	</defs>
	<clipPath id="SVGID_2_">
		<use xlink:href="#SVGID_1_"  style="overflow:visible;"/>
	</clipPath>
	<path class="st0" d="M538.2,165.3V14.7c0,0,0-14.7-14.7-14.7h-13.1H27.7H14.7C14.7,0,0,0,0,14.7v150.7c0,0,0,14.7,14.7,14.7h13.1
		h482.8h13.1C523.6,180,538.2,180,538.2,165.3"/>
</g>
<rect x="143.4" y="46.7" class="st1" width="7.8" height="65.7"/>
<rect x="164.3" y="46.7" class="st1" width="7.8" height="65.7"/>
<polygon class="st1" points="231.2,71.2 240,71.2 249.2,102 249.4,102 259.3,71.2 267.6,71.2 278,102 278.2,102 287,71.2 
	295.3,71.2 282,112.4 274.1,112.4 263.2,81.6 263,81.6 253.1,112.4 244.7,112.4 "/>
<g>
	<defs>
		<rect id="SVGID_3_" width="538.2" height="180"/>
	</defs>
	<clipPath id="SVGID_4_">
		<use xlink:href="#SVGID_3_"  style="overflow:visible;"/>
	</clipPath>
	<path class="st2" d="M324,81.6c-0.9-1.2-2.1-2.1-3.4-2.9c-1.4-0.8-3-1.2-5-1.2c-1.9,0-3.5,0.4-4.8,1.2c-1.4,0.8-2,1.9-2,3.4
		c0,1.2,0.4,2.2,1.2,3c0.8,0.8,1.7,1.4,2.8,1.8c1.1,0.5,2.2,0.8,3.4,1c1.2,0.2,2.3,0.4,3.1,0.6c1.7,0.4,3.3,0.9,4.7,1.5
		c1.5,0.6,2.8,1.3,3.8,2.3c1.1,0.9,1.9,2.1,2.5,3.4c0.6,1.3,0.9,3,0.9,4.9c0,2.3-0.5,4.3-1.5,6c-1,1.7-2.3,3-3.8,4
		c-1.6,1-3.3,1.8-5.3,2.3c-2,0.5-4,0.7-6,0.7c-3.4,0-6.4-0.5-9-1.6c-2.6-1-4.9-3-6.9-5.7l5.9-4.9c1.3,1.3,2.7,2.4,4.3,3.4
		c1.6,1,3.5,1.5,5.7,1.5c1,0,2-0.1,3-0.3c1-0.2,1.9-0.5,2.7-1c0.8-0.4,1.4-1,1.9-1.7c0.5-0.7,0.7-1.4,0.7-2.3c0-1.2-0.4-2.1-1.1-2.9
		c-0.7-0.8-1.6-1.3-2.6-1.8c-1-0.4-2.1-0.8-3.2-1c-1.1-0.3-2.1-0.5-3-0.7c-1.7-0.4-3.3-0.9-4.8-1.4c-1.5-0.5-2.8-1.2-4-2.1
		c-1.2-0.9-2.1-2-2.8-3.3c-0.7-1.3-1-3-1-5c0-2.1,0.4-4,1.3-5.6c0.9-1.6,2.1-2.9,3.6-4c1.5-1,3.2-1.8,5-2.3c1.9-0.5,3.8-0.8,5.7-0.8
		c2.8,0,5.4,0.5,8,1.6c2.5,1,4.6,2.8,6.1,5.2L324,81.6z"/>
	<path class="st3" d="M339.5,56.4c0-1.6,0.6-2.9,1.7-4c1.1-1.1,2.5-1.7,4-1.7c1.6,0,2.9,0.6,4,1.7c1.1,1.1,1.7,2.5,1.7,4
		c0,1.6-0.6,2.9-1.7,4c-1.1,1.1-2.5,1.7-4,1.7c-1.6,0-2.9-0.6-4-1.7C340,59.4,339.5,58,339.5,56.4"/>
</g>
<rect x="341.3" y="71.2" class="st4" width="7.8" height="41.2"/>
<g>
	<defs>
		<rect id="SVGID_5_" width="538.2" height="180"/>
	</defs>
	<clipPath id="SVGID_6_">
		<use xlink:href="#SVGID_5_"  style="overflow:visible;"/>
	</clipPath>
	<path class="st5" d="M381.4,77.5c-2.1,0-4,0.4-5.6,1.1c-1.7,0.7-3.1,1.7-4.3,3c-1.2,1.2-2.1,2.7-2.7,4.5c-0.6,1.8-1,3.7-1,5.8
		c0,4.2,1.2,7.5,3.7,10c2.4,2.5,5.7,3.8,9.9,3.8c4.2,0,7.5-1.3,9.9-3.8c2.4-2.5,3.7-5.9,3.7-10c0-2.1-0.3-4-1-5.8
		c-0.6-1.8-1.5-3.3-2.7-4.5c-1.2-1.3-2.6-2.2-4.3-3C385.4,77.8,383.5,77.5,381.4,77.5 M402.8,112.1c0,3.1-0.5,6-1.6,8.6
		c-1.1,2.6-2.6,4.8-4.6,6.7c-2,1.9-4.3,3.3-7.1,4.4c-2.8,1-5.9,1.6-9.2,1.6c-3.9,0-7.5-0.5-10.8-1.7c-3.3-1.1-6.4-3-9.3-5.7l5.3-6.6
		c2,2.2,4.2,3.9,6.6,5c2.4,1.1,5.1,1.7,8.1,1.7c2.9,0,5.3-0.4,7.2-1.3c1.9-0.8,3.4-1.9,4.6-3.3c1.1-1.3,1.9-2.9,2.4-4.6
		c0.5-1.7,0.7-3.4,0.7-5.2v-6.1h-0.3c-1.5,2.5-3.6,4.3-6.1,5.5c-2.6,1.2-5.3,1.8-8.1,1.8c-3,0-5.8-0.5-8.4-1.6
		c-2.6-1.1-4.8-2.6-6.7-4.4c-1.9-1.9-3.3-4.1-4.3-6.7c-1-2.6-1.6-5.4-1.6-8.4c0-3,0.5-5.8,1.5-8.5c1-2.6,2.4-4.9,4.2-6.9
		c1.8-2,4-3.5,6.6-4.6c2.6-1.1,5.5-1.7,8.6-1.7c2.8,0,5.5,0.6,8.1,1.8c2.6,1.2,4.7,2.9,6.2,5.1h0.2v-5.9h7.8V112.1z"/>
	<path class="st5" d="M414.7,71.2h7.8v6.3h0.2c1-2.2,2.7-4,5.1-5.3c2.4-1.4,5.2-2,8.4-2c2,0,3.9,0.3,5.7,0.9
		c1.8,0.6,3.4,1.5,4.8,2.8c1.4,1.3,2.4,2.9,3.3,4.9c0.8,2,1.2,4.4,1.2,7.1v26.5h-7.8V88.1c0-1.9-0.3-3.5-0.8-4.9
		c-0.5-1.4-1.2-2.5-2.1-3.3c-0.9-0.8-1.9-1.4-3-1.8c-1.1-0.4-2.3-0.6-3.5-0.6c-1.6,0-3.1,0.3-4.5,0.8c-1.4,0.5-2.6,1.3-3.7,2.5
		c-1,1.1-1.9,2.6-2.4,4.3c-0.6,1.7-0.9,3.8-0.9,6.2v21.2h-7.8V71.2z"/>
	<path class="st5" d="M484.9,81.6c-0.9-1.2-2.1-2.1-3.4-2.9c-1.4-0.8-3-1.2-5-1.2c-1.9,0-3.5,0.4-4.8,1.2c-1.4,0.8-2,1.9-2,3.4
		c0,1.2,0.4,2.2,1.2,3c0.8,0.8,1.7,1.4,2.8,1.8c1.1,0.5,2.2,0.8,3.4,1c1.2,0.2,2.3,0.4,3.1,0.6c1.7,0.4,3.3,0.9,4.7,1.5
		c1.5,0.6,2.8,1.3,3.8,2.3c1.1,0.9,1.9,2.1,2.5,3.4c0.6,1.3,0.9,3,0.9,4.9c0,2.3-0.5,4.3-1.5,6c-1,1.7-2.3,3-3.8,4
		c-1.6,1-3.3,1.8-5.3,2.3c-2,0.5-4,0.7-6,0.7c-3.4,0-6.4-0.5-9-1.6c-2.6-1-4.9-3-6.9-5.7l5.9-4.9c1.3,1.3,2.7,2.4,4.3,3.4
		c1.6,1,3.5,1.5,5.7,1.5c1,0,2-0.1,3-0.3c1-0.2,1.9-0.5,2.7-1c0.8-0.4,1.4-1,1.9-1.7c0.5-0.7,0.7-1.4,0.7-2.3c0-1.2-0.4-2.1-1.1-2.9
		c-0.7-0.8-1.6-1.3-2.6-1.8c-1-0.4-2.1-0.8-3.2-1c-1.1-0.3-2.1-0.5-3-0.7c-1.7-0.4-3.3-0.9-4.8-1.4c-1.5-0.5-2.8-1.2-4-2.1
		c-1.2-0.9-2.1-2-2.8-3.3c-0.7-1.3-1-3-1-5c0-2.1,0.4-4,1.3-5.6c0.9-1.6,2.1-2.9,3.6-4c1.5-1,3.2-1.8,5-2.3c1.9-0.5,3.8-0.8,5.7-0.8
		c2.8,0,5.4,0.5,8,1.6c2.6,1,4.6,2.8,6.1,5.2L484.9,81.6z"/>
</g>
<polygon class="st1" points="79.3,71.2 67.6,103.4 67.4,103.4 55.2,71.2 46.1,71.2 63.2,112.7 55.6,133.3 63.3,133.3 87.6,71.2 "/>
<g>
	<defs>
		<rect id="SVGID_7_" width="538.2" height="180"/>
	</defs>
	<clipPath id="SVGID_8_">
		<use xlink:href="#SVGID_7_"  style="overflow:visible;"/>
	</clipPath>
	<path class="st6" d="M125.1,88.4c-0.1-1.7-0.3-3.3-0.8-4.8c-0.5-1.4-1.2-2.7-2.2-3.8c-1-1.1-2.2-1.9-3.7-2.5
		c-1.5-0.6-3.2-0.9-5.2-0.9c-1.9,0-3.7,0.4-5.3,1.1c-1.6,0.7-2.9,1.7-4,2.8c-1.1,1.2-2,2.4-2.6,3.9c-0.6,1.4-0.9,2.8-0.9,4.2H125.1z
		 M100.4,94.7c0,1.8,0.4,3.4,1.2,4.9c0.8,1.5,1.8,2.7,3.1,3.8c1.3,1,2.7,1.9,4.4,2.4c1.7,0.6,3.4,0.9,5.2,0.9c2.4,0,4.5-0.6,6.3-1.7
		c1.8-1.1,3.4-2.6,5-4.5l5.9,4.5c-4.3,5.6-10.4,8.4-18.2,8.4c-3.2,0-6.2-0.6-8.8-1.7c-2.6-1.1-4.9-2.6-6.7-4.6
		c-1.8-1.9-3.2-4.2-4.2-6.9c-1-2.6-1.5-5.5-1.5-8.6c0-3.1,0.5-5.9,1.6-8.6c1.1-2.6,2.6-4.9,4.4-6.9c1.9-1.9,4.1-3.5,6.7-4.6
		c2.6-1.1,5.4-1.7,8.5-1.7c3.7,0,6.7,0.6,9.3,1.9c2.5,1.3,4.6,2.9,6.2,5c1.6,2.1,2.8,4.4,3.5,7c0.7,2.6,1.1,5.2,1.1,7.9v2.8H100.4z"
		/>
	<path class="st6" d="M190.9,91.8c0,2.1,0.3,4,1,5.8c0.6,1.8,1.5,3.3,2.7,4.5c1.2,1.2,2.6,2.2,4.3,3c1.7,0.7,3.6,1.1,5.6,1.1
		c2.1,0,4-0.4,5.7-1.1c1.7-0.7,3.1-1.7,4.3-3c1.2-1.2,2.1-2.8,2.7-4.5c0.6-1.8,1-3.7,1-5.8c0-2.1-0.3-4-1-5.8
		c-0.6-1.8-1.5-3.3-2.7-4.5c-1.2-1.3-2.6-2.2-4.3-3c-1.7-0.7-3.6-1.1-5.7-1.1c-2.1,0-4,0.4-5.6,1.1c-1.7,0.7-3.1,1.7-4.3,3
		c-1.2,1.2-2.1,2.7-2.7,4.5C191.2,87.8,190.9,89.7,190.9,91.8 M182.5,91.8c0-3,0.6-5.8,1.7-8.4c1.1-2.6,2.7-4.9,4.7-6.9
		c2-2,4.3-3.5,7-4.6c2.7-1.1,5.5-1.7,8.6-1.7c3.1,0,5.9,0.6,8.6,1.7c2.7,1.1,5,2.7,7,4.6c2,2,3.5,4.3,4.6,6.9
		c1.1,2.6,1.7,5.4,1.7,8.4c0,3-0.6,5.8-1.7,8.5c-1.1,2.6-2.7,4.9-4.6,6.9c-2,1.9-4.3,3.5-7,4.6c-2.7,1.1-5.5,1.7-8.6,1.7
		c-3.1,0-5.9-0.6-8.6-1.7c-2.7-1.1-5-2.7-7-4.6c-2-1.9-3.5-4.2-4.7-6.9C183.1,97.7,182.5,94.8,182.5,91.8"/>
</g>
<rect x="143.4" y="46.7" class="st1" width="7.8" height="65.7"/>
<rect x="164.3" y="46.7" class="st1" width="7.8" height="65.7"/>
<polygon class="st1" points="231.2,71.2 240,71.2 249.2,102 249.4,102 259.3,71.2 267.6,71.2 278,102 278.2,102 287,71.2 
	295.3,71.2 282,112.4 274.1,112.4 263.2,81.6 263,81.6 253.1,112.4 244.7,112.4 "/>
<g>
	<defs>
		<rect id="SVGID_9_" width="538.2" height="180"/>
	</defs>
	<clipPath id="SVGID_10_">
		<use xlink:href="#SVGID_9_"  style="overflow:visible;"/>
	</clipPath>
	<path class="st7" d="M324,81.6c-0.9-1.2-2.1-2.1-3.4-2.9c-1.4-0.8-3-1.2-5-1.2c-1.9,0-3.5,0.4-4.8,1.2c-1.4,0.8-2,1.9-2,3.4
		c0,1.2,0.4,2.2,1.2,3c0.8,0.8,1.7,1.4,2.8,1.8c1.1,0.5,2.2,0.8,3.4,1c1.2,0.2,2.3,0.4,3.1,0.6c1.7,0.4,3.3,0.9,4.7,1.5
		c1.5,0.6,2.8,1.3,3.8,2.3c1.1,0.9,1.9,2.1,2.5,3.4c0.6,1.3,0.9,3,0.9,4.9c0,2.3-0.5,4.3-1.5,6c-1,1.6-2.3,3-3.8,4
		c-1.6,1-3.3,1.8-5.3,2.3c-2,0.5-4,0.7-6,0.7c-3.4,0-6.4-0.5-9-1.6c-2.6-1-4.9-3-6.9-5.7l5.9-4.9c1.3,1.3,2.7,2.4,4.3,3.4
		c1.6,1,3.5,1.5,5.7,1.5c1,0,2-0.1,3-0.3c1-0.2,1.9-0.5,2.7-1c0.8-0.4,1.4-1,1.9-1.7c0.5-0.7,0.7-1.4,0.7-2.3c0-1.2-0.4-2.1-1.1-2.9
		c-0.7-0.7-1.6-1.3-2.6-1.8c-1-0.4-2.1-0.8-3.2-1c-1.1-0.3-2.1-0.5-3-0.6c-1.7-0.4-3.3-0.9-4.8-1.4c-1.5-0.5-2.8-1.2-4-2.1
		c-1.2-0.9-2.1-2-2.8-3.3c-0.7-1.3-1-3-1-5c0-2.1,0.4-4,1.3-5.6c0.9-1.6,2.1-2.9,3.6-4c1.5-1,3.2-1.8,5-2.3c1.9-0.5,3.8-0.8,5.7-0.8
		c2.8,0,5.4,0.5,8,1.6c2.5,1,4.6,2.8,6.1,5.2L324,81.6z"/>
	<path class="st8" d="M339.5,56.4c0-1.6,0.6-2.9,1.7-4c1.1-1.1,2.5-1.7,4-1.7c1.6,0,2.9,0.6,4,1.7c1.1,1.1,1.7,2.5,1.7,4
		c0,1.6-0.6,2.9-1.7,4c-1.1,1.1-2.5,1.7-4,1.7c-1.6,0-2.9-0.6-4-1.7C340,59.4,339.5,58,339.5,56.4"/>
</g>
<rect x="341.3" y="71.2" class="st4" width="7.8" height="41.2"/>
<g>
	<defs>
		<rect id="SVGID_11_" width="538.2" height="180"/>
	</defs>
	<clipPath id="SVGID_12_">
		<use xlink:href="#SVGID_11_"  style="overflow:visible;"/>
	</clipPath>
	<path class="st9" d="M381.4,77.5c-2.1,0-4,0.4-5.6,1.1c-1.7,0.7-3.1,1.7-4.3,3c-1.2,1.2-2.1,2.7-2.7,4.5c-0.6,1.8-1,3.7-1,5.8
		c0,4.2,1.2,7.5,3.7,10c2.4,2.5,5.7,3.8,9.9,3.8c4.2,0,7.5-1.3,9.9-3.8c2.4-2.5,3.7-5.9,3.7-10c0-2.1-0.3-4-1-5.8
		c-0.6-1.8-1.5-3.3-2.7-4.5c-1.2-1.3-2.6-2.2-4.3-3C385.4,77.8,383.5,77.5,381.4,77.5 M402.8,112.1c0,3.1-0.5,6-1.6,8.6
		c-1.1,2.6-2.6,4.8-4.6,6.7c-2,1.9-4.3,3.3-7.1,4.4c-2.8,1-5.9,1.6-9.2,1.6c-3.9,0-7.5-0.5-10.8-1.7c-3.3-1.1-6.4-3-9.3-5.7l5.3-6.6
		c2,2.2,4.2,3.9,6.6,5c2.4,1.1,5.1,1.7,8.1,1.7c2.9,0,5.3-0.4,7.2-1.3c1.9-0.8,3.4-1.9,4.6-3.3c1.1-1.3,1.9-2.9,2.4-4.6
		c0.5-1.7,0.7-3.4,0.7-5.2v-6.1h-0.3c-1.5,2.5-3.6,4.3-6.1,5.5c-2.6,1.2-5.3,1.8-8.1,1.8c-3,0-5.8-0.5-8.4-1.6
		c-2.6-1.1-4.8-2.6-6.7-4.4c-1.9-1.9-3.3-4.1-4.3-6.7c-1-2.6-1.6-5.4-1.6-8.4c0-3,0.5-5.8,1.5-8.5c1-2.6,2.4-4.9,4.2-6.9
		c1.8-2,4-3.5,6.6-4.6c2.6-1.1,5.5-1.7,8.6-1.7c2.8,0,5.5,0.6,8.1,1.8c2.6,1.2,4.7,2.9,6.2,5.1h0.2v-5.9h7.8V112.1z"/>
	<path class="st9" d="M414.7,71.2h7.8v6.3h0.2c1-2.2,2.7-4,5.1-5.3c2.4-1.4,5.2-2,8.4-2c2,0,3.9,0.3,5.7,0.9
		c1.8,0.6,3.4,1.5,4.8,2.8c1.4,1.3,2.4,2.9,3.3,4.9c0.8,2,1.2,4.4,1.2,7.1v26.5h-7.8V88.1c0-1.9-0.3-3.5-0.8-4.9
		c-0.5-1.4-1.2-2.5-2.1-3.3c-0.9-0.8-1.9-1.4-3-1.8c-1.1-0.4-2.3-0.6-3.5-0.6c-1.6,0-3.1,0.3-4.5,0.8c-1.4,0.5-2.6,1.3-3.7,2.5
		c-1,1.1-1.9,2.6-2.4,4.3c-0.6,1.7-0.9,3.8-0.9,6.2v21.2h-7.8V71.2z"/>
	<path class="st9" d="M484.9,81.6c-0.9-1.2-2.1-2.1-3.4-2.9c-1.4-0.8-3-1.2-5-1.2c-1.9,0-3.5,0.4-4.8,1.2c-1.4,0.8-2,1.9-2,3.4
		c0,1.2,0.4,2.2,1.2,3c0.8,0.8,1.7,1.4,2.8,1.8c1.1,0.5,2.2,0.8,3.4,1c1.2,0.2,2.3,0.4,3.1,0.6c1.7,0.4,3.3,0.9,4.7,1.5
		c1.5,0.6,2.8,1.3,3.8,2.3c1.1,0.9,1.9,2.1,2.5,3.4c0.6,1.3,0.9,3,0.9,4.9c0,2.3-0.5,4.3-1.5,6c-1,1.6-2.3,3-3.8,4
		c-1.6,1-3.3,1.8-5.3,2.3c-2,0.5-4,0.7-6,0.7c-3.4,0-6.4-0.5-9-1.6c-2.6-1-4.9-3-6.9-5.7l5.9-4.9c1.3,1.3,2.7,2.4,4.3,3.4
		c1.6,1,3.5,1.5,5.7,1.5c1,0,2-0.1,3-0.3c1-0.2,1.9-0.5,2.7-1c0.8-0.4,1.4-1,1.9-1.7c0.5-0.7,0.7-1.4,0.7-2.3c0-1.2-0.4-2.1-1.1-2.9
		c-0.7-0.7-1.6-1.3-2.6-1.8c-1-0.4-2.1-0.8-3.2-1c-1.1-0.3-2.1-0.5-3-0.6c-1.7-0.4-3.3-0.9-4.8-1.4c-1.5-0.5-2.8-1.2-4-2.1
		c-1.2-0.9-2.1-2-2.8-3.3c-0.7-1.3-1-3-1-5c0-2.1,0.4-4,1.3-5.6c0.9-1.6,2.1-2.9,3.6-4c1.5-1,3.2-1.8,5-2.3c1.9-0.5,3.8-0.8,5.7-0.8
		c2.8,0,5.4,0.5,8,1.6c2.6,1,4.6,2.8,6.1,5.2L484.9,81.6z"/>
</g>
<polygon class="st1" points="79.3,71.2 67.6,103.4 67.4,103.4 55.2,71.2 46.1,71.2 63.2,112.7 55.6,133.3 63.3,133.3 87.6,71.2 "/>
<g>
	<defs>
		<rect id="SVGID_13_" width="538.2" height="180"/>
	</defs>
	<clipPath id="SVGID_14_">
		<use xlink:href="#SVGID_13_"  style="overflow:visible;"/>
	</clipPath>
	<path class="st10" d="M125.1,88.4c-0.1-1.7-0.3-3.3-0.8-4.8c-0.5-1.4-1.2-2.7-2.2-3.8c-1-1.1-2.2-1.9-3.7-2.5
		c-1.5-0.6-3.2-0.9-5.2-0.9c-1.9,0-3.7,0.4-5.3,1.1c-1.6,0.7-2.9,1.7-4,2.8c-1.1,1.2-2,2.4-2.6,3.9c-0.6,1.4-0.9,2.8-0.9,4.2H125.1z
		 M100.4,94.7c0,1.8,0.4,3.4,1.2,4.9c0.8,1.5,1.8,2.7,3.1,3.8c1.3,1,2.7,1.9,4.4,2.4c1.7,0.6,3.4,0.9,5.2,0.9c2.4,0,4.5-0.6,6.3-1.7
		c1.8-1.1,3.4-2.6,5-4.5l5.9,4.5c-4.3,5.6-10.4,8.4-18.2,8.4c-3.2,0-6.2-0.5-8.8-1.6c-2.6-1.1-4.9-2.6-6.7-4.6
		c-1.8-1.9-3.2-4.2-4.2-6.9c-1-2.6-1.5-5.5-1.5-8.6c0-3.1,0.5-5.9,1.6-8.6c1.1-2.6,2.6-4.9,4.4-6.9c1.9-1.9,4.1-3.5,6.7-4.6
		c2.6-1.1,5.4-1.7,8.5-1.7c3.7,0,6.7,0.6,9.3,1.9c2.5,1.3,4.6,2.9,6.2,5c1.6,2.1,2.8,4.4,3.5,7c0.7,2.6,1.1,5.2,1.1,7.9v2.8H100.4z"
		/>
	<path class="st10" d="M190.9,91.8c0,2.1,0.3,4,1,5.8c0.6,1.8,1.5,3.3,2.7,4.5c1.2,1.2,2.6,2.2,4.3,3c1.7,0.7,3.6,1.1,5.6,1.1
		c2.1,0,4-0.4,5.7-1.1c1.7-0.7,3.1-1.7,4.3-3c1.2-1.2,2.1-2.8,2.7-4.5c0.6-1.8,1-3.7,1-5.8c0-2.1-0.3-4-1-5.8
		c-0.6-1.8-1.5-3.3-2.7-4.5c-1.2-1.3-2.6-2.2-4.3-3c-1.7-0.7-3.6-1.1-5.7-1.1c-2.1,0-4,0.4-5.6,1.1c-1.7,0.7-3.1,1.7-4.3,3
		c-1.2,1.2-2.1,2.7-2.7,4.5C191.2,87.8,190.9,89.7,190.9,91.8 M182.5,91.8c0-3,0.6-5.8,1.7-8.4c1.1-2.6,2.7-4.9,4.7-6.9
		c2-2,4.3-3.5,7-4.6c2.7-1.1,5.5-1.7,8.6-1.7c3.1,0,5.9,0.6,8.6,1.7c2.7,1.1,5,2.7,7,4.6c2,2,3.5,4.3,4.6,6.9
		c1.1,2.6,1.7,5.4,1.7,8.4c0,3-0.6,5.8-1.7,8.5c-1.1,2.6-2.7,4.9-4.6,6.9c-2,1.9-4.3,3.5-7,4.6c-2.7,1.1-5.5,1.7-8.6,1.7
		c-3.1,0-5.9-0.6-8.6-1.7c-2.7-1.1-5-2.7-7-4.6c-2-1.9-3.5-4.2-4.7-6.9C183.1,97.7,182.5,94.8,182.5,91.8"/>
</g>
</svg>
