<svg xmlns="http://www.w3.org/2000/svg" viewBox="0 0 75.18 79.17"><path d="M56.18,80.74H1.09a.65.65,0,0,1-.65-.65V8.31a.66.66,0,0,1,.65-.65H56.18a.66.66,0,0,1,.65.65V80.09A.65.65,0,0,1,56.18,80.74ZM1.74,79.44H55.53V9H1.74Z" transform="translate(-0.44 -1.57)"/><path d="M49.68,42.52H7.59a.65.65,0,0,1-.65-.65V37.13a.65.65,0,0,1,.65-.65H49.68a.65.65,0,0,1,.65.65v4.74A.65.65,0,0,1,49.68,42.52ZM8.24,41.22H49V37.78H8.24Z" transform="translate(-0.44 -1.57)"/><path d="M49.68,48.83H7.59a.65.65,0,0,1,0-1.3H49.68a.65.65,0,0,1,0,1.3Z" transform="translate(-0.44 -1.57)"/><path d="M37.75,53H7.59a.65.65,0,0,1,0-1.3H37.75a.65.65,0,1,1,0,1.3Z" transform="translate(-0.44 -1.57)"/><path d="M49.68,57.17H7.59a.65.65,0,1,1,0-1.3H49.68a.65.65,0,1,1,0,1.3Z" transform="translate(-0.44 -1.57)"/><path d="M49.68,61.34H7.59a.65.65,0,0,1,0-1.3H49.68a.65.65,0,0,1,0,1.3Z" transform="translate(-0.44 -1.57)"/><path d="M41.82,65.52H7.59a.65.65,0,1,1,0-1.3H41.82a.65.65,0,1,1,0,1.3Z" transform="translate(-0.44 -1.57)"/><path d="M49.68,69.68H7.59a.65.65,0,0,1,0-1.3H49.68a.65.65,0,1,1,0,1.3Z" transform="translate(-0.44 -1.57)"/><path d="M22.33,31.86H7.59a.65.65,0,0,1-.65-.65V16.47a.65.65,0,0,1,.65-.65H22.33a.66.66,0,0,1,.66.65V31.21A.66.66,0,0,1,22.33,31.86ZM8.24,30.56H21.68V17.12H8.24Z" transform="translate(-0.44 -1.57)"/><path d="M47.55,11.79a.65.65,0,1,1,0-1.3,1.68,1.68,0,0,0,1.68-1.68V4.55a1.68,1.68,0,0,0-3.36,0,.65.65,0,0,1-1.3,0,3,3,0,0,1,6,0V8.81A3,3,0,0,1,47.55,11.79Zm-7.57,0a.65.65,0,0,1,0-1.3,1.68,1.68,0,0,0,1.68-1.68V4.55a1.68,1.68,0,1,0-3.35,0,.66.66,0,0,1-1.31,0,3,3,0,0,1,6,0V8.81A3,3,0,0,1,40,11.79Zm-7.56,0a.65.65,0,1,1,0-1.3,1.68,1.68,0,0,0,1.67-1.68V4.55a1.68,1.68,0,1,0-3.35,0,.65.65,0,0,1-1.3,0,3,3,0,1,1,5.95,0V8.81A3,3,0,0,1,32.42,11.79Zm-7.57,0a.65.65,0,1,1,0-1.3,1.68,1.68,0,0,0,1.68-1.68V4.55a1.68,1.68,0,0,0-3.36,0,.65.65,0,1,1-1.3,0,3,3,0,1,1,6,0V8.81A3,3,0,0,1,24.85,11.79Zm-7.56,0a.65.65,0,0,1,0-1.3A1.68,1.68,0,0,0,19,8.81V4.55a1.68,1.68,0,0,0-3.36,0,.65.65,0,0,1-1.3,0,3,3,0,0,1,6,0V8.81A3,3,0,0,1,17.29,11.79Zm-7.57,0a.65.65,0,1,1,0-1.3A1.68,1.68,0,0,0,11.4,8.81V4.55a1.68,1.68,0,1,0-3.35,0,.65.65,0,0,1-1.3,0,3,3,0,1,1,5.95,0V8.81A3,3,0,0,1,9.72,11.79Z" transform="translate(-0.44 -1.57)"/><path d="M68.27,78.09h0a.66.66,0,0,1-.58-.36L61.14,64.25a.68.68,0,0,1-.07-.28V17.43a.66.66,0,0,1,.66-.65H74.82a.66.66,0,0,1,.66.65V64a.68.68,0,0,1-.07.28L68.86,77.73A.66.66,0,0,1,68.27,78.09ZM62.38,63.82,68.27,76l5.9-12.14V18.08H62.38Z" transform="translate(-0.44 -1.57)"/><path d="M68.27,78.09h0a.66.66,0,0,1-.58-.36l-1.87-3.84a.71.71,0,0,1,0-.57.66.66,0,0,1,.45-.35,9.35,9.35,0,0,1,4,0,.63.63,0,0,1,.44.35.67.67,0,0,1,0,.57l-1.87,3.84A.66.66,0,0,1,68.27,78.09Zm-.9-4,.9,1.86.9-1.86A8.33,8.33,0,0,0,67.37,74.1Z" transform="translate(-0.44 -1.57)"/><path d="M75,64.64a.66.66,0,0,1-.33-.09l-2.15-1.28-1.37,1.19a.65.65,0,0,1-.81,0l-2.15-1.55-1.49,1.49a.68.68,0,0,1-.46.19h0a.64.64,0,0,1-.46-.19l-1.49-1.49-2.15,1.55a.64.64,0,0,1-.91-.14.65.65,0,0,1,.14-.91L64,61.56a.64.64,0,0,1,.84.07l1.42,1.42,1.42-1.42a.64.64,0,0,1,.84-.07l2.19,1.58L72,62a.65.65,0,0,1,.76-.06l2.55,1.51a.65.65,0,0,1,.23.89A.66.66,0,0,1,75,64.64Z" transform="translate(-0.44 -1.57)"/><path d="M64.35,62.93a.65.65,0,0,1-.65-.65V17.43a.65.65,0,1,1,1.3,0V62.28A.65.65,0,0,1,64.35,62.93Z" transform="translate(-0.44 -1.57)"/><path d="M68,63.16a.66.66,0,0,1-.65-.65l-.2-45.08a.65.65,0,0,1,.65-.65h0a.66.66,0,0,1,.66.65l.2,45.07a.66.66,0,0,1-.65.66Z" transform="translate(-0.44 -1.57)"/><path d="M72.14,63.68a.65.65,0,0,1-.65-.65V17.43a.65.65,0,0,1,1.3,0V63A.65.65,0,0,1,72.14,63.68Z" transform="translate(-0.44 -1.57)"/><path d="M74.82,18.08H61.73a.66.66,0,0,1-.66-.65V14a4.06,4.06,0,0,1,4.05-4h6.3a4.05,4.05,0,0,1,4,4v3.4A.65.65,0,0,1,74.82,18.08Zm-12.44-1.3H74.17V14a2.75,2.75,0,0,0-2.75-2.75h-6.3A2.75,2.75,0,0,0,62.38,14Z" transform="translate(-0.44 -1.57)"/></svg>