<?xml version="1.0" encoding="utf-8"?>
<!-- Generator: Adobe Illustrator 24.1.0, SVG Export Plug-In . SVG Version: 6.00 Build 0)  -->
<svg version="1.1" baseProfile="basic" xmlns="http://www.w3.org/2000/svg" xmlns:xlink="http://www.w3.org/1999/xlink" x="0px"
	 y="0px" viewBox="0 0 76 82" xml:space="preserve">
<style type="text/css">
	.st0{display:none;}
	.st1{display:inline;}
	.st2{fill:none;stroke:#000000;stroke-width:1.3;stroke-linecap:round;stroke-linejoin:round;stroke-miterlimit:10;}
	.st3{fill:none;stroke:#000000;stroke-width:1.3;stroke-linecap:round;stroke-linejoin:round;stroke-miterlimit:2.6131;}
	.st4{fill-rule:evenodd;clip-rule:evenodd;fill:none;}
	.st5{fill:none;}
</style>
<g id="Survey__x26__Brief" class="st0">
	<g class="st1">
		<g>
			<g>
				<path d="M56.18,80.74H1.09c-0.36,0-0.65-0.29-0.65-0.65V8.31c0-0.36,0.29-0.65,0.65-0.65h55.09c0.36,0,0.65,0.29,0.65,0.65
					v71.77C56.83,80.45,56.54,80.74,56.18,80.74z M1.74,79.44h53.79V8.97H1.74V79.44z"/>
			</g>
			<g>
				<path d="M49.68,42.52H7.59c-0.36,0-0.65-0.29-0.65-0.65v-4.75c0-0.36,0.29-0.65,0.65-0.65h42.08c0.36,0,0.65,0.29,0.65,0.65
					v4.75C50.33,42.23,50.04,42.52,49.68,42.52z M8.24,41.22h40.78v-3.44H8.24V41.22z"/>
			</g>
			<g>
				<path d="M49.68,48.83H7.59c-0.36,0-0.65-0.29-0.65-0.65c0-0.36,0.29-0.65,0.65-0.65h42.08c0.36,0,0.65,0.29,0.65,0.65
					C50.33,48.54,50.04,48.83,49.68,48.83z"/>
			</g>
			<g>
				<path d="M37.75,53H7.59c-0.36,0-0.65-0.29-0.65-0.65c0-0.36,0.29-0.65,0.65-0.65h30.16c0.36,0,0.65,0.29,0.65,0.65
					C38.4,52.71,38.11,53,37.75,53z"/>
			</g>
			<g>
				<path d="M49.68,57.17H7.59c-0.36,0-0.65-0.29-0.65-0.65c0-0.36,0.29-0.65,0.65-0.65h42.08c0.36,0,0.65,0.29,0.65,0.65
					C50.33,56.88,50.04,57.17,49.68,57.17z"/>
			</g>
			<g>
				<path d="M49.68,61.34H7.59c-0.36,0-0.65-0.29-0.65-0.65c0-0.36,0.29-0.65,0.65-0.65h42.08c0.36,0,0.65,0.29,0.65,0.65
					C50.33,61.05,50.04,61.34,49.68,61.34z"/>
			</g>
			<g>
				<path d="M41.82,65.52H7.59c-0.36,0-0.65-0.29-0.65-0.65c0-0.36,0.29-0.65,0.65-0.65h34.23c0.36,0,0.65,0.29,0.65,0.65
					C42.48,65.23,42.18,65.52,41.82,65.52z"/>
			</g>
			<g>
				<path d="M49.68,69.68H7.59c-0.36,0-0.65-0.29-0.65-0.65s0.29-0.65,0.65-0.65h42.08c0.36,0,0.65,0.29,0.65,0.65
					S50.04,69.68,49.68,69.68z"/>
			</g>
			<g>
				<path d="M22.33,31.86H7.59c-0.36,0-0.65-0.29-0.65-0.65V16.47c0-0.36,0.29-0.65,0.65-0.65h14.74c0.36,0,0.65,0.29,0.65,0.65
					v14.74C22.99,31.57,22.69,31.86,22.33,31.86z M8.24,30.56h13.44V17.12H8.24V30.56z"/>
			</g>
			<g>
				<path d="M47.55,11.79c-0.36,0-0.65-0.29-0.65-0.65c0-0.36,0.29-0.65,0.65-0.65c0.92,0,1.67-0.75,1.67-1.68V4.55
					c0-0.92-0.75-1.68-1.67-1.68c-0.93,0-1.68,0.75-1.68,1.68c0,0.36-0.29,0.65-0.65,0.65c-0.36,0-0.65-0.29-0.65-0.65
					c0-1.64,1.34-2.98,2.98-2.98c1.64,0,2.98,1.34,2.98,2.98v4.26C50.53,10.45,49.19,11.79,47.55,11.79z M39.98,11.79
					c-0.36,0-0.65-0.29-0.65-0.65c0-0.36,0.29-0.65,0.65-0.65c0.92,0,1.67-0.75,1.67-1.68V4.55c0-0.92-0.75-1.68-1.67-1.68
					c-0.93,0-1.68,0.75-1.68,1.68c0,0.36-0.29,0.65-0.65,0.65C37.3,5.2,37,4.91,37,4.55c0-1.64,1.34-2.98,2.98-2.98
					c1.64,0,2.98,1.34,2.98,2.98v4.26C42.96,10.45,41.62,11.79,39.98,11.79z M32.42,11.79c-0.36,0-0.65-0.29-0.65-0.65
					c0-0.36,0.29-0.65,0.65-0.65c0.92,0,1.67-0.75,1.67-1.68V4.55c0-0.92-0.75-1.68-1.67-1.68c-0.93,0-1.68,0.75-1.68,1.68
					c0,0.36-0.29,0.65-0.65,0.65c-0.36,0-0.65-0.29-0.65-0.65c0-1.64,1.34-2.98,2.98-2.98c1.64,0,2.97,1.34,2.97,2.98v4.26
					C35.39,10.45,34.06,11.79,32.42,11.79z M24.85,11.79c-0.36,0-0.65-0.29-0.65-0.65c0-0.36,0.29-0.65,0.65-0.65
					c0.92,0,1.68-0.75,1.68-1.68V4.55c0-0.92-0.75-1.68-1.68-1.68c-0.93,0-1.68,0.75-1.68,1.68c0,0.36-0.29,0.65-0.65,0.65
					s-0.65-0.29-0.65-0.65c0-1.64,1.34-2.98,2.98-2.98c1.64,0,2.98,1.34,2.98,2.98v4.26C27.83,10.45,26.49,11.79,24.85,11.79z
					 M17.29,11.79c-0.36,0-0.65-0.29-0.65-0.65c0-0.36,0.29-0.65,0.65-0.65c0.93,0,1.68-0.75,1.68-1.68V4.55
					c0-0.92-0.75-1.68-1.68-1.68c-0.93,0-1.68,0.75-1.68,1.68c0,0.36-0.29,0.65-0.65,0.65c-0.36,0-0.65-0.29-0.65-0.65
					c0-1.64,1.34-2.98,2.98-2.98c1.64,0,2.98,1.34,2.98,2.98v4.26C20.27,10.45,18.93,11.79,17.29,11.79z M9.72,11.79
					c-0.36,0-0.65-0.29-0.65-0.65c0-0.36,0.29-0.65,0.65-0.65c0.93,0,1.68-0.75,1.68-1.68V4.55c0-0.92-0.75-1.68-1.68-1.68
					c-0.92,0-1.67,0.75-1.67,1.68c0,0.36-0.29,0.65-0.65,0.65c-0.36,0-0.65-0.29-0.65-0.65c0-1.64,1.33-2.98,2.97-2.98
					c1.64,0,2.98,1.34,2.98,2.98v4.26C12.7,10.45,11.36,11.79,9.72,11.79z"/>
			</g>
			<g>
				<path d="M68.27,78.09L68.27,78.09c-0.25,0-0.48-0.14-0.58-0.37l-6.55-13.48c-0.04-0.09-0.07-0.19-0.07-0.28V17.43
					c0-0.36,0.29-0.65,0.65-0.65h13.1c0.36,0,0.65,0.29,0.65,0.65v46.54c0,0.1-0.02,0.2-0.07,0.28l-6.55,13.48
					C68.75,77.95,68.52,78.09,68.27,78.09z M62.38,63.82l5.9,12.14l5.9-12.14V18.08h-11.8V63.82z"/>
			</g>
			<g>
				<path d="M68.27,78.09L68.27,78.09c-0.25,0-0.48-0.14-0.58-0.37l-1.86-3.84c-0.09-0.18-0.09-0.39,0-0.57
					c0.09-0.18,0.25-0.31,0.45-0.35c1.33-0.29,2.65-0.29,4,0c0.2,0.04,0.36,0.17,0.45,0.35c0.09,0.18,0.09,0.39,0,0.57l-1.87,3.84
					C68.75,77.95,68.52,78.09,68.27,78.09z M67.37,74.1l0.9,1.85l0.9-1.85C68.57,74.04,67.98,74.03,67.37,74.1z"/>
			</g>
			<g>
				<path d="M74.97,64.64c-0.11,0-0.23-0.03-0.33-0.09l-2.15-1.27l-1.37,1.19c-0.23,0.2-0.56,0.21-0.81,0.04l-2.16-1.56l-1.49,1.49
					c-0.12,0.12-0.29,0.19-0.46,0.19l0,0c-0.17,0-0.34-0.07-0.46-0.19l-1.49-1.49l-2.15,1.56c-0.29,0.21-0.7,0.14-0.91-0.15
					c-0.21-0.29-0.15-0.7,0.15-0.91l2.6-1.88c0.26-0.19,0.61-0.16,0.84,0.07l1.42,1.42l1.42-1.42c0.23-0.23,0.58-0.25,0.84-0.07
					l2.19,1.58l1.33-1.16c0.21-0.18,0.52-0.21,0.76-0.07l2.55,1.51c0.31,0.18,0.41,0.58,0.23,0.89
					C75.41,64.52,75.19,64.64,74.97,64.64z"/>
			</g>
			<g>
				<path d="M64.35,62.93c-0.36,0-0.65-0.29-0.65-0.65V17.43c0-0.36,0.29-0.65,0.65-0.65c0.36,0,0.65,0.29,0.65,0.65v44.85
					C65,62.64,64.71,62.93,64.35,62.93z"/>
			</g>
			<g>
				<path d="M68.03,63.16c-0.36,0-0.65-0.29-0.65-0.65l-0.2-45.08c0-0.36,0.29-0.65,0.65-0.65c0,0,0,0,0,0
					c0.36,0,0.65,0.29,0.65,0.65l0.2,45.08C68.69,62.86,68.4,63.15,68.03,63.16L68.03,63.16z"/>
			</g>
			<g>
				<path d="M72.14,63.68c-0.36,0-0.65-0.29-0.65-0.65v-45.6c0-0.36,0.29-0.65,0.65-0.65c0.36,0,0.65,0.29,0.65,0.65v45.6
					C72.79,63.39,72.5,63.68,72.14,63.68z"/>
			</g>
			<g>
				<path d="M74.82,18.08H61.73c-0.36,0-0.65-0.29-0.65-0.65v-3.4c0-2.23,1.82-4.05,4.05-4.05h6.3c2.23,0,4.05,1.82,4.05,4.05v3.4
					C75.47,17.79,75.18,18.08,74.82,18.08z M62.38,16.78h11.79v-2.75c0-1.52-1.23-2.75-2.75-2.75h-6.3c-1.51,0-2.75,1.23-2.75,2.75
					V16.78z"/>
			</g>
		</g>
	</g>
</g>
<g id="Design" class="st0">
	<g class="st1">
		<g>
			<g id="XMLID_610_">
				<g>
					<path class="st2" d="M64.94,2.08c0.12,0.08,0,0.78-0.37,2.11c-0.97,3.59-4.05,10.5-9.57,20.51l-4.67-2.7
						C56.24,12.22,60.68,6.09,63.3,3.46C64.26,2.48,64.82,2.02,64.94,2.08z"/>
					<path class="st2" d="M62.74,44.07c3.68,7.04,3.24,8.85,1.62,15.5l-0.48,1.97c-0.6,2.51-1.3,5.2-2.43,7.58
						c-1.11,2.3-2.65,4.33-4.95,5.59c-2.14,0.99-4.47,1.14-6.93,1.29c-2.46,0.16-5.06,0.32-7.79,1.32l-0.34,0.14
						c-2.43,0.88-5.81,2.11-8.19,2.44c-6.55,0.48-10.17-3.31-14.03-7.33c-1.69-1.77-3.43-3.58-5.47-5.14
						c-3.52-2.79-5.62-5.15-6.53-7.83c-0.9-2.67-0.62-5.75,0.6-9.96c1.07-3.67,1.15-6.49,1.22-8.96c0.12-4.65,0.21-8.06,7.56-14.05
						c3.23-2.63,7.88-6.42,12.03-5.68l0.83,0.14c1.22,0.28,2.1,0.55,2.88,0.78c1.65,0.49,2.88,0.86,5.92,1.08
						c1.13,0.08,2.42,0.1,3.77,0.14c1.88,0.04,4.59,0.2,7.18,0.65l0.08,0.02c-0.59,1-1.24,2.09-1.45,2.43
						c-0.35,0.62-0.71,1.23-1.08,1.87c-0.23,0.41-0.36,0.88-0.36,1.33c-0.01,0.29,0.04,0.6,0.13,0.89c0.28-0.03,0.56-0.03,0.81,0
						c-0.21,0.01-0.42,0.05-0.65,0.11c-0.02,0-0.04,0.01-0.06,0.01c-1.63,0.44-3.62,2.1-5.47,5.29c-0.92,1.6-1.46,3.34-1.61,5.08
						c-0.1,1.13-0.05,2.28,0.15,3.39c1.41-1.77,3.13-2.25,4.74-2.7c1.34-0.38,2.58-0.73,3.3-1.98c1.85-3.19,2.29-5.76,1.86-7.39
						c-0.01-0.03-0.02-0.05-0.02-0.07c-0.05-0.18-0.11-0.34-0.19-0.49c0.14,0.19,0.25,0.38,0.35,0.6c0.28-0.06,0.58-0.17,0.83-0.33
						c0.38-0.23,0.71-0.56,0.96-0.97c0.37-0.63,0.72-1.26,1.07-1.88c0.27-0.49,1.45-2.57,2.06-3.66c0.35,0.28,1.5,1.31,1.81,1.65
						c0.49,0.56,0.9,1.18,1.23,1.9c0.99,2.13,1.49,4.23,2.03,6.43c0.64,2.72,1.34,5.55,2.97,8.74L62.74,44.07z M55.36,60.97
						c1.41-1.12,2.48-2.56,2.48-3.88c0-1.46-0.6-2.32-1.56-2.81c-0.86-0.43-1.97-0.54-3.22-0.54c-1.24,0-2.39,0.11-3.28,0.54
						c-1.02,0.49-1.65,1.35-1.65,2.81l-0.03,1.14l-0.04,1.22c0,1.95,0.35,3.63,2.5,3.63C51.92,63.09,53.86,62.18,55.36,60.97z
						 M43,68.14c1.4-1.12,2.48-2.57,2.48-3.88c0-1.46-0.6-2.32-1.57-2.8c-0.85-0.44-1.97-0.54-3.21-0.54c-1.24,0-2.39,0.1-3.28,0.53
						c-1.02,0.49-1.66,1.35-1.66,2.81l-0.02,1.11v0.03l-0.04,1.22c0,1.95,0.35,3.63,2.5,3.63C39.55,70.25,41.49,69.35,43,68.14z
						 M28.64,39.11c1.4-1.12,2.48-2.56,2.48-3.88c0-1.46-0.6-2.32-1.57-2.81c-0.85-0.43-1.97-0.54-3.21-0.54
						c-1.24,0-2.39,0.11-3.28,0.54c-1.02,0.5-1.66,1.35-1.66,2.81l-0.03,1.14l-0.03,1.22c0,1.95,0.35,3.63,2.5,3.63
						C25.19,41.23,27.13,40.33,28.64,39.11z M28.47,65.27c1.41-1.13,2.48-2.57,2.48-3.89c0-1.47-0.6-2.32-1.56-2.8
						c-0.86-0.43-1.98-0.54-3.22-0.54c-1.24,0-2.39,0.11-3.28,0.54c-1.02,0.49-1.65,1.34-1.65,2.8l-0.03,1.12v0.01l-0.04,1.23
						c0,1.96,0.36,3.63,2.5,3.63C25.03,67.38,26.97,66.48,28.47,65.27z M23.27,51.82c1.41-1.12,2.48-2.56,2.48-3.89
						c0-1.46-0.6-2.31-1.56-2.79c-0.86-0.44-1.98-0.54-3.22-0.54c-1.24,0-2.39,0.1-3.28,0.53c-1.02,0.49-1.65,1.34-1.65,2.8
						l-0.03,1.12v0.02l-0.04,1.22c0,1.97,0.35,3.64,2.5,3.64C19.83,53.94,21.77,53.03,23.27,51.82z"/>
					<path class="st2" d="M57.85,57.09c0,1.32-1.07,2.75-2.48,3.88c-1.5,1.21-3.45,2.12-4.81,2.12c-2.15,0-2.5-1.68-2.5-3.63
						l0.04-1.22l0.03-1.14c0-1.47,0.64-2.33,1.65-2.81c0.89-0.43,2.04-0.54,3.28-0.54c1.25,0,2.36,0.11,3.22,0.54
						C57.25,54.77,57.85,55.63,57.85,57.09z"/>
					<path class="st2" d="M50.32,22.01l4.67,2.7c-0.07,0.12-0.18,0.31-0.32,0.58l-5.38-1.52C49.75,22.98,50.18,22.26,50.32,22.01z"
						/>
					<path class="st2" d="M49.29,23.76l5.38,1.52c-0.62,1.09-1.79,3.17-2.06,3.66l-4.77-2.75C48.05,25.85,48.7,24.75,49.29,23.76z"
						/>
					<path class="st2" d="M47.84,26.19l4.77,2.75c-0.35,0.62-0.7,1.24-1.07,1.88c-0.24,0.41-0.58,0.74-0.96,0.97
						c-0.25,0.17-0.55,0.27-0.83,0.33c-0.1-0.21-0.22-0.41-0.35-0.6c0.01-0.01,0-0.01-0.01-0.02c-0.21-0.45-0.5-0.77-0.85-0.98
						c-0.33-0.2-0.74-0.28-1.19-0.25h-0.01c-0.25-0.03-0.53-0.03-0.81,0c-0.09-0.29-0.14-0.6-0.13-0.89c0-0.45,0.13-0.92,0.36-1.33
						C47.13,27.42,47.49,26.8,47.84,26.19z"/>
					<path class="st2" d="M49.6,32.08c0.43,1.63-0.01,4.2-1.86,7.39c-0.72,1.25-1.96,1.6-3.3,1.98c-1.61,0.45-3.33,0.93-4.74,2.7
						c-0.2-1.11-0.25-2.26-0.15-3.39c0.15-1.74,0.69-3.48,1.61-5.08c1.85-3.2,3.84-4.86,5.47-5.29c0.02,0,0.04-0.01,0.06-0.01
						c0.23-0.06,0.44-0.1,0.65-0.11h0.01c0.4,0.06,0.77,0.17,1.1,0.37c0.37,0.21,0.68,0.5,0.94,0.86c0.01,0.01,0.02,0.01,0.01,0.02
						c0.08,0.15,0.14,0.31,0.19,0.49C49.58,32.03,49.59,32.05,49.6,32.08z"/>
					<path class="st2" d="M49.39,31.5c-0.25-0.36-0.57-0.65-0.94-0.86c-0.33-0.2-0.7-0.31-1.1-0.37c0.45-0.03,0.86,0.06,1.19,0.25
						C48.89,30.73,49.18,31.05,49.39,31.5z"/>
					<path class="st2" d="M45.48,64.26c0,1.31-1.08,2.75-2.48,3.88c-1.5,1.21-3.45,2.12-4.81,2.12c-2.15,0-2.5-1.68-2.5-3.63
						l0.04-1.22v-0.03l0.02-1.11c0-1.46,0.65-2.32,1.66-2.81c0.89-0.43,2.04-0.53,3.28-0.53c1.24,0,2.36,0.1,3.21,0.54
						C44.88,61.94,45.48,62.79,45.48,64.26z"/>
					<path class="st2" d="M31.12,35.24c0,1.32-1.08,2.75-2.48,3.88c-1.5,1.22-3.45,2.12-4.81,2.12c-2.15,0-2.5-1.68-2.5-3.63
						l0.03-1.22l0.03-1.14c0-1.47,0.65-2.32,1.66-2.81c0.89-0.43,2.04-0.54,3.28-0.54c1.24,0,2.36,0.11,3.21,0.54
						C30.52,32.92,31.12,33.78,31.12,35.24z"/>
					<path class="st2" d="M30.95,61.39c0,1.32-1.07,2.75-2.48,3.89c-1.5,1.21-3.44,2.11-4.81,2.11c-2.14,0-2.5-1.67-2.5-3.63
						l0.04-1.23v-0.01l0.03-1.12c0-1.47,0.63-2.32,1.65-2.8c0.89-0.43,2.04-0.54,3.28-0.54c1.24,0,2.36,0.11,3.22,0.54
						C30.36,59.07,30.95,59.92,30.95,61.39z"/>
					<path class="st2" d="M25.75,47.93c0,1.33-1.07,2.76-2.48,3.89c-1.5,1.21-3.45,2.12-4.81,2.12c-2.15,0-2.5-1.67-2.5-3.64
						l0.04-1.22v-0.02l0.03-1.12c0-1.47,0.63-2.32,1.65-2.8c0.89-0.43,2.04-0.53,3.28-0.53c1.24,0,2.36,0.1,3.22,0.54
						C25.16,45.63,25.75,46.48,25.75,47.93z"/>
				</g>
				<g>
					<path class="st3" d="M20.97,44.6c1.24,0,2.36,0.1,3.22,0.54c0.97,0.49,1.56,1.34,1.56,2.79c0,1.33-1.07,2.76-2.48,3.89
						c-1.5,1.21-3.45,2.12-4.81,2.12c-2.15,0-2.5-1.67-2.5-3.64l0.04-1.22v-0.02l0.03-1.12c0-1.47,0.63-2.32,1.65-2.8
						C18.58,44.7,19.73,44.6,20.97,44.6z"/>
					<path class="st3" d="M29.55,32.42c0.98,0.5,1.57,1.36,1.57,2.81c0,1.32-1.08,2.75-2.48,3.88c-1.5,1.22-3.45,2.12-4.81,2.12
						c-2.15,0-2.5-1.68-2.5-3.63l0.03-1.22l0.03-1.14c0-1.47,0.65-2.32,1.66-2.81c0.89-0.43,2.04-0.54,3.28-0.54
						C27.57,31.88,28.69,31.99,29.55,32.42z"/>
					<path class="st3" d="M26.17,58.04c1.24,0,2.36,0.11,3.22,0.54c0.97,0.49,1.56,1.34,1.56,2.8c0,1.32-1.07,2.75-2.48,3.89
						c-1.5,1.21-3.44,2.11-4.81,2.11c-2.14,0-2.5-1.67-2.5-3.63l0.04-1.23v-0.01l0.03-1.12c0-1.47,0.63-2.32,1.65-2.8
						C23.77,58.15,24.92,58.04,26.17,58.04z"/>
					<path class="st3" d="M40.69,60.92c1.24,0,2.36,0.1,3.21,0.54c0.98,0.49,1.57,1.34,1.57,2.8c0,1.31-1.08,2.75-2.48,3.88
						c-1.5,1.21-3.45,2.12-4.81,2.12c-2.15,0-2.5-1.68-2.5-3.63l0.04-1.22v-0.03l0.02-1.11c0-1.46,0.65-2.32,1.66-2.81
						C38.3,61.01,39.45,60.92,40.69,60.92z"/>
					<path class="st3" d="M53.06,53.74c1.25,0,2.36,0.11,3.22,0.54c0.97,0.5,1.56,1.36,1.56,2.81c0,1.32-1.07,2.75-2.48,3.88
						c-1.5,1.21-3.45,2.12-4.81,2.12c-2.15,0-2.5-1.68-2.5-3.63l0.04-1.22l0.03-1.14c0-1.47,0.64-2.33,1.65-2.81
						C50.66,53.84,51.82,53.74,53.06,53.74z"/>
					<path class="st3" d="M49.21,23.74c-2.59-0.45-5.3-0.61-7.18-0.65c-1.35-0.04-2.64-0.06-3.77-0.14
						c-3.04-0.22-4.27-0.6-5.92-1.08c-0.78-0.23-1.66-0.5-2.88-0.78l-0.83-0.14c-4.14-0.73-8.79,3.06-12.03,5.68
						c-7.35,5.99-7.44,9.4-7.56,14.05c-0.07,2.47-0.15,5.29-1.22,8.96c-1.22,4.21-1.5,7.29-0.6,9.96c0.91,2.69,3.01,5.05,6.53,7.83
						c2.04,1.55,3.78,3.37,5.47,5.14c3.86,4.02,7.47,7.81,14.03,7.33c2.37-0.33,5.75-1.56,8.19-2.44l0.34-0.14
						c2.73-1,5.32-1.16,7.79-1.32c2.46-0.15,4.8-0.3,6.93-1.29c2.31-1.26,3.84-3.28,4.95-5.59c1.13-2.38,1.84-5.07,2.43-7.58
						l0.48-1.97c1.62-6.65,2.06-8.46-1.62-15.5L62.71,44c-1.63-3.19-2.32-6.03-2.97-8.74c-0.54-2.2-1.05-4.3-2.03-6.43
						c-0.33-0.71-0.74-1.34-1.23-1.9c-0.3-0.34-1.46-1.37-1.81-1.65"/>
					<path class="st3" d="M47.33,30.27c-0.21,0.01-0.42,0.05-0.65,0.11c-0.02,0-0.04,0.01-0.06,0.01c-1.63,0.44-3.62,2.1-5.47,5.29
						c-0.92,1.6-1.46,3.34-1.61,5.08c-0.1,1.13-0.05,2.28,0.15,3.39c1.41-1.77,3.13-2.25,4.74-2.7c1.34-0.38,2.58-0.73,3.3-1.98
						c1.85-3.19,2.29-5.76,1.86-7.39c-0.01-0.03-0.02-0.05-0.02-0.07c-0.05-0.18-0.11-0.34-0.19-0.49"/>
					<path class="st2" d="M47.84,26.19c-0.35,0.62-0.71,1.23-1.08,1.87c-0.23,0.41-0.36,0.88-0.36,1.33
						c-0.01,0.29,0.04,0.6,0.13,0.89c0.28-0.03,0.56-0.03,0.81,0h0.01c0.4,0.06,0.77,0.17,1.1,0.37c0.37,0.21,0.68,0.5,0.94,0.86
						c0.01,0.01,0.02,0.01,0.01,0.02c0.14,0.19,0.25,0.38,0.35,0.6c0.28-0.06,0.58-0.17,0.83-0.33c0.38-0.23,0.71-0.56,0.96-0.97
						c0.37-0.63,0.72-1.26,1.07-1.88"/>
					<path class="st2" d="M50.32,22.01c-0.15,0.25-0.58,0.97-1.04,1.75c-0.59,1-1.24,2.09-1.45,2.43l4.77,2.75
						c0.27-0.49,1.45-2.57,2.06-3.66c0.15-0.26,0.25-0.46,0.32-0.58"/>
					<path class="st3" d="M50.32,22.01l4.67,2.7c5.52-10.01,8.61-16.92,9.57-20.51c0.37-1.33,0.49-2.03,0.37-2.11
						c-0.12-0.06-0.67,0.4-1.64,1.38C60.68,6.09,56.24,12.22,50.32,22.01z"/>
				</g>
			</g>
		</g>
	</g>
</g>
<g id="Calculations" class="st0">
	<g class="st1">
		<g>
			<g>
				<path d="M72.06,81H2.6C2.27,81,2,80.72,2,80.38V59.69c0-0.34,0.27-0.62,0.6-0.62h32.52c0.16,0,0.31,0.07,0.42,0.18l2.9,3.02
					c0.23,0.24,0.23,0.64,0,0.88c-0.23,0.24-0.61,0.24-0.85,0l-2.73-2.84H3.2v19.45h68.87c0.33,0,0.6,0.28,0.6,0.62
					C72.66,80.72,72.39,81,72.06,81z"/>
			</g>
			<g>
				<path d="M74.22,81H54.3c-0.33,0-0.6-0.28-0.6-0.62V8.22c0-0.34,0.27-0.62,0.6-0.62h19.92c0.33,0,0.6,0.28,0.6,0.62v72.16
					C74.82,80.72,74.55,81,74.22,81z M54.9,79.76h18.72V8.84H54.9V79.76z"/>
			</g>
			<g>
				<path d="M74.22,19.94H54.3c-0.33,0-0.6-0.28-0.6-0.62c0-0.34,0.27-0.62,0.6-0.62h19.92c0.33,0,0.6,0.28,0.6,0.62
					C74.82,19.66,74.55,19.94,74.22,19.94z"/>
			</g>
			<g>
				<path d="M74.22,32.05H54.3c-0.33,0-0.6-0.28-0.6-0.62c0-0.34,0.27-0.62,0.6-0.62h19.92c0.33,0,0.6,0.28,0.6,0.62
					C74.82,31.77,74.55,32.05,74.22,32.05z"/>
			</g>
			<g>
				<path d="M74.22,44.16H54.3c-0.33,0-0.6-0.28-0.6-0.62s0.27-0.62,0.6-0.62h19.92c0.33,0,0.6,0.28,0.6,0.62
					S74.55,44.16,74.22,44.16z"/>
			</g>
			<g>
				<path d="M74.22,56.27H54.3c-0.33,0-0.6-0.28-0.6-0.62c0-0.34,0.27-0.62,0.6-0.62h19.92c0.33,0,0.6,0.28,0.6,0.62
					C74.82,55.99,74.55,56.27,74.22,56.27z"/>
			</g>
			<g>
				<path d="M74.22,68.38H54.3c-0.33,0-0.6-0.28-0.6-0.62s0.27-0.62,0.6-0.62h19.92c0.33,0,0.6,0.28,0.6,0.62
					S74.55,68.38,74.22,68.38z"/>
			</g>
			<g>
				<path d="M64.26,76.84c-1.27,0-2.3-1.07-2.3-2.39c0-1.32,1.03-2.39,2.3-2.39c1.27,0,2.3,1.07,2.3,2.39
					C66.56,75.77,65.53,76.84,64.26,76.84z M64.26,73.3c-0.61,0-1.1,0.51-1.1,1.15c0,0.63,0.49,1.14,1.1,1.14
					c0.61,0,1.1-0.51,1.1-1.14C65.36,73.82,64.87,73.3,64.26,73.3z"/>
			</g>
			<g>
				<path d="M54.3,80.24c-0.16,0-0.31-0.06-0.42-0.18L5.31,29.61c-0.23-0.24-0.23-0.64,0-0.88l14.08-14.64
					c0.22-0.23,0.62-0.24,0.85,0l34.49,35.83c0.11,0.12,0.18,0.27,0.18,0.44v29.26c0,0.25-0.15,0.48-0.37,0.57
					C54.46,80.23,54.38,80.24,54.3,80.24z M6.58,29.17L53.7,78.12v-27.5L19.81,15.41L6.58,29.17z"/>
			</g>
			<g>
				<path d="M13.29,37.64c-0.15,0-0.31-0.06-0.42-0.18c-0.23-0.24-0.23-0.64,0-0.88l14.08-14.63c0.23-0.24,0.61-0.24,0.85,0
					c0.23,0.24,0.23,0.64,0,0.88L13.71,37.46C13.6,37.58,13.44,37.64,13.29,37.64z"/>
			</g>
			<g>
				<path d="M21.53,46.2c-0.15,0-0.31-0.06-0.42-0.18c-0.23-0.24-0.23-0.64,0-0.88l14.09-14.62c0.23-0.24,0.61-0.24,0.85,0
					c0.23,0.24,0.23,0.64,0,0.88L21.95,46.02C21.84,46.14,21.68,46.2,21.53,46.2z"/>
			</g>
			<g>
				<path d="M29.78,54.77c-0.15,0-0.31-0.06-0.42-0.18c-0.23-0.24-0.23-0.64,0-0.88l14.08-14.63c0.23-0.24,0.61-0.24,0.85,0
					s0.23,0.64,0,0.88L30.2,54.59C30.09,54.71,29.93,54.77,29.78,54.77z"/>
			</g>
			<g>
				<path d="M38.02,63.33c-0.15,0-0.31-0.06-0.42-0.18c-0.23-0.24-0.23-0.64,0-0.88l14.08-14.62c0.23-0.24,0.61-0.24,0.85,0
					c0.23,0.24,0.23,0.64,0,0.88L38.45,63.15C38.33,63.27,38.18,63.33,38.02,63.33z"/>
			</g>
			<g>
				<path d="M46.26,71.89c-0.15,0-0.31-0.06-0.42-0.18c-0.23-0.24-0.23-0.64,0-0.88l8.04-8.35c0.23-0.24,0.61-0.24,0.85,0
					c0.23,0.24,0.23,0.64,0,0.88l-8.04,8.35C46.57,71.83,46.42,71.89,46.26,71.89z"/>
			</g>
			<g>
				<path d="M13.29,81c-0.33,0-0.6-0.28-0.6-0.62V59.69c0-0.34,0.27-0.62,0.6-0.62c0.33,0,0.6,0.28,0.6,0.62v20.69
					C13.89,80.72,13.62,81,13.29,81z"/>
			</g>
			<g>
				<path d="M24.95,81c-0.33,0-0.6-0.28-0.6-0.62V59.69c0-0.34,0.27-0.62,0.6-0.62s0.6,0.28,0.6,0.62v20.69
					C25.55,80.72,25.28,81,24.95,81z"/>
			</g>
			<g>
				<path d="M36.6,81c-0.33,0-0.6-0.28-0.6-0.62V61.24c0-0.34,0.27-0.62,0.6-0.62s0.6,0.28,0.6,0.62v19.14
					C37.2,80.72,36.93,81,36.6,81z"/>
			</g>
			<g>
				<path d="M48.26,81c-0.33,0-0.6-0.28-0.6-0.62v-7.04c0-0.34,0.27-0.62,0.6-0.62c0.33,0,0.6,0.28,0.6,0.62v7.04
					C48.86,80.72,48.59,81,48.26,81z"/>
			</g>
		</g>
	</g>
</g>
<g id="Layer_4" class="st0">
	<g class="st1">
		<g>
			<g>
				<path d="M35.5,62.18c-6.01,0-11.6-3.21-14.59-8.38L5.58,27.25c-0.09-0.15-0.11-0.33-0.07-0.49c0.04-0.17,0.15-0.31,0.3-0.39
					L34.35,9.89c0.2-0.12,0.46-0.12,0.66,0l3.14,1.87L37.98,8.2c-0.01-0.24,0.11-0.47,0.32-0.59l8.75-5.05
					c0.15-0.09,0.33-0.11,0.49-0.07c0.17,0.05,0.31,0.15,0.39,0.3l15.53,26.9c4.51,7.83,1.83,17.87-5.99,22.38l-13.64,7.87
					C41.3,61.41,38.42,62.18,35.5,62.18z M7.03,27.16l15.01,25.99c2.75,4.77,7.91,7.73,13.46,7.73c2.7,0,5.36-0.71,7.69-2.06
					l13.64-7.87c7.2-4.16,9.67-13.4,5.52-20.6L47.14,4.01L39.3,8.54l0.21,4.38c0.01,0.24-0.11,0.47-0.32,0.59
					c-0.21,0.12-0.46,0.12-0.67,0l-3.85-2.3L7.03,27.16z"/>
			</g>
			<g>
				<path d="M22.01,55.01c-0.22,0-0.44-0.12-0.56-0.33l-3.79-6.56c-0.09-0.15-0.11-0.33-0.07-0.49c0.05-0.17,0.15-0.31,0.3-0.39
					l41.2-23.79c0.31-0.18,0.71-0.07,0.89,0.24l3.79,6.56c0.09,0.15,0.11,0.33,0.07,0.49c-0.04,0.17-0.15,0.31-0.3,0.39l-41.2,23.79
					C22.23,54.99,22.12,55.01,22.01,55.01z M19.11,48.04l3.14,5.44l40.07-23.14l-3.14-5.44L19.11,48.04z"/>
			</g>
			<g>
				<path d="M60.39,81.63c-3.05,0-5.66-1.57-6.82-4.1l-6.79-14.81c-0.14-0.3-0.02-0.67,0.27-0.83l10.16-5.86
					c0.29-0.17,0.66-0.09,0.86,0.19l9.43,13.29c1.13,1.58,1.51,3.57,1.07,5.58c-0.49,2.26-1.98,4.29-3.98,5.45
					C63.32,81.25,61.87,81.63,60.39,81.63z M48.21,62.72l6.54,14.27c0.95,2.06,3.11,3.34,5.64,3.34c1.25,0,2.48-0.32,3.54-0.94
					c1.69-0.97,2.94-2.69,3.36-4.6c0.36-1.65,0.05-3.26-0.86-4.55l-9.08-12.81L48.21,62.72z"/>
			</g>
			<g>
				<path d="M60.51,77.02c-1.26,0-2.44-0.68-3.08-1.77c-0.98-1.7-0.39-3.88,1.3-4.86c0.54-0.31,1.15-0.47,1.77-0.47
					c1.27,0,2.45,0.68,3.08,1.78c0.98,1.69,0.39,3.86-1.3,4.84C61.74,76.86,61.13,77.02,60.51,77.02z M60.5,71.23
					c-0.39,0-0.78,0.1-1.12,0.3c-1.07,0.62-1.44,2-0.82,3.08c0.6,1.03,2.03,1.42,3.07,0.82c1.08-0.62,1.45-2,0.83-3.07
					C62.06,71.66,61.31,71.23,60.5,71.23z"/>
			</g>
			<g>
				<path d="M45.7,63.96c-0.49,0-0.95-0.27-1.18-0.7l-1.58-2.72c-0.38-0.65-0.16-1.49,0.5-1.87l12.78-7.38
					c0.64-0.36,1.51-0.13,1.87,0.49l1.58,2.74c0.18,0.31,0.23,0.68,0.14,1.03c-0.09,0.36-0.32,0.65-0.64,0.84l-12.78,7.37
					C46.18,63.89,45.94,63.96,45.7,63.96z M56.96,52.44L44.09,59.8l1.61,2.86c0.01,0,0.02,0,0.03-0.01l12.79-7.38L56.96,52.44z"/>
			</g>
			<g>
				<path d="M17.28,44.06c-1.25,0-2.34-0.61-2.93-1.63L5.58,27.25c-0.09-0.15-0.11-0.33-0.07-0.49c0.04-0.17,0.15-0.31,0.3-0.4
					L34.35,9.89c0.21-0.12,0.46-0.12,0.67,0.01l3.08,1.9l-0.11-3.61c-0.01-0.24,0.12-0.46,0.32-0.58l8.75-5.05
					c0.31-0.18,0.71-0.07,0.89,0.24l1.99,3.45c0.93,1.61,0.28,3.74-1.45,4.74c-0.74,0.43-1.6,0.59-2.41,0.48l1.01,1.75
					c0.43,0.74,0.54,1.63,0.31,2.49c-0.24,0.9-0.85,1.7-1.67,2.2c-0.03,0.02-0.06,0.04-0.09,0.06c-1.34,0.77-3.08,0.61-4.14-0.3
					c-0.27,0.83-0.86,1.58-1.7,2.07c-0.74,0.42-1.61,0.58-2.41,0.47l2.42,4.2c0.43,0.74,0.54,1.63,0.31,2.49
					c-0.25,0.94-0.89,1.76-1.76,2.25c-0.58,0.33-1.23,0.51-1.89,0.51c-1.22,0-2.29-0.58-2.9-1.56c-0.3,0.74-0.85,1.41-1.62,1.85
					c-0.74,0.43-1.61,0.59-2.41,0.48c0.87,1.61,0.21,3.69-1.49,4.68c-0.58,0.33-1.23,0.51-1.89,0.51c-1.25,0-2.35-0.61-2.94-1.63
					l-0.76-1.31c-0.31,0.77-0.88,1.42-1.62,1.85c-0.79,0.45-1.74,0.56-2.5,0.42c0.06,0.09,0.11,0.19,0.17,0.29
					c0.48,0.8,1.17,1.95,2.1,3.57c0.43,0.75,0.54,1.63,0.31,2.5c-0.25,0.93-0.89,1.75-1.76,2.25C18.6,43.88,17.94,44.06,17.28,44.06
					z M7.03,27.16l8.45,14.62c0.55,0.96,1.98,1.26,3.05,0.64c0.57-0.33,0.99-0.86,1.15-1.46c0.14-0.53,0.08-1.06-0.18-1.51
					c-0.93-1.61-1.62-2.75-2.09-3.55c-1.04-1.73-1.14-1.91-0.9-2.33c0.12-0.2,0.38-0.35,0.62-0.35c0.19,0,0.36,0.07,0.6,0.17
					c0.55,0.23,1.62,0.51,2.48,0.02c0.57-0.33,0.99-0.86,1.15-1.47c0.14-0.52,0.08-1.05-0.17-1.5l0,0
					c-0.18-0.31-0.07-0.71,0.24-0.89c0.31-0.18,0.71-0.07,0.89,0.24l0,0l2.05,3.55c0.55,0.96,1.98,1.26,3.06,0.65
					c1.11-0.64,1.55-1.98,0.97-2.98l-1.25-2.16h0v0c-0.18-0.31-0.08-0.71,0.23-0.89c0.31-0.18,0.71-0.08,0.89,0.23v0l0,0
					c0.56,0.96,1.98,1.26,3.06,0.64c1.11-0.64,1.55-1.98,0.97-2.97l0,0c-0.18-0.31-0.07-0.71,0.24-0.89
					c0.31-0.18,0.71-0.07,0.89,0.24c0,0,0,0,0,0l1.25,2.18c0.55,0.95,1.98,1.26,3.05,0.64c0.57-0.33,0.99-0.86,1.15-1.46
					c0.14-0.53,0.08-1.06-0.18-1.5l-3.72-6.45c0,0,0,0,0,0c-0.18-0.31-0.07-0.71,0.24-0.89c0.31-0.18,0.71-0.07,0.89,0.24h0
					c0.55,0.96,1.98,1.27,3.06,0.65c1.1-0.64,1.54-1.97,0.97-2.97l0,0c-0.03-0.05-0.05-0.11-0.07-0.17l0,0c0,0,0,0,0,0l0,0
					c0,0,0,0,0,0l0,0c0,0,0,0,0,0l0,0c0,0,0,0,0,0l0,0c0,0,0,0,0,0v0v0l0,0v0v0v0l0,0v0v0v0v0l0,0v0v0c0,0,0,0,0,0l0,0c0,0,0,0,0,0
					v0c0,0,0,0,0,0s0,0,0,0h0c0,0,0,0,0,0l0,0c0,0,0,0,0,0l0,0c0,0,0,0,0,0l0,0c-0.05-0.26,0.07-0.55,0.31-0.69
					c0.03-0.02,0.06-0.03,0.08-0.04c0.15-0.06,0.31-0.06,0.46-0.01l0,0c0,0,0,0,0,0l0,0c0,0,0,0,0,0l0,0c0,0,0,0,0,0l0,0l0,0l0,0
					c0,0,0,0,0,0l0,0c0,0,0,0,0,0h0l0,0l0,0l0,0h0l0,0c0,0,0,0,0,0c0,0,0,0,0,0s0,0,0,0l0,0l0,0l0,0c0,0,0,0,0,0l0,0c0,0,0,0,0,0
					l0,0c0,0,0,0,0,0l0,0c0.13,0.05,0.24,0.15,0.32,0.28c0,0,0,0,0,0l0.69,1.2c0.54,0.93,1.92,1.26,2.99,0.69
					c0.02-0.02,0.05-0.04,0.07-0.05c0.57-0.32,0.98-0.86,1.15-1.46c0.14-0.53,0.08-1.06-0.18-1.5l-2.3-3.98
					c-0.18-0.31-0.08-0.71,0.23-0.89c0.31-0.18,0.71-0.08,0.88,0.23c0.56,0.97,1.99,1.26,3.06,0.64c1.11-0.64,1.54-1.97,0.97-2.97
					l-1.67-2.89l-7.85,4.53l0.14,4.44c0.01,0.24-0.12,0.46-0.32,0.58c-0.21,0.12-0.46,0.12-0.67-0.01l-3.78-2.34L7.03,27.16z"/>
			</g>
			<g>
				<path class="st3" d="M7.5,44.14"/>
			</g>
			<g>
				<path class="st3" d="M8.21,62.03"/>
			</g>
			<g>
				<path class="st3" d="M7.62,76.58"/>
			</g>
		</g>
	</g>
</g>
<g id="Production" class="st0">
	<g class="st1">
		<g>
			<g>
				<path d="M40.85,77.56h-5.03c-0.29,0-0.54-0.21-0.58-0.5l-1.39-9.27c-1.56-0.26-3.09-0.67-4.57-1.22l-5.84,7.34
					c-0.18,0.23-0.5,0.29-0.75,0.14l-4.36-2.52c-0.25-0.14-0.36-0.45-0.25-0.72l3.43-8.73c-1.2-1-2.32-2.12-3.34-3.34l-8.73,3.43
					c-0.27,0.11-0.58,0-0.72-0.25L6.2,57.55c-0.14-0.25-0.08-0.57,0.14-0.75l7.33-5.84c-0.54-1.48-0.95-3.01-1.22-4.56L3.18,45
					c-0.29-0.04-0.5-0.29-0.5-0.58v-5.03c0-0.29,0.21-0.54,0.5-0.58l9.27-1.4c0.27-1.55,0.68-3.09,1.22-4.57L6.34,27
					c-0.23-0.18-0.29-0.5-0.14-0.75l2.52-4.36c0.15-0.25,0.45-0.36,0.72-0.25l8.73,3.43c1.02-1.22,2.14-2.34,3.34-3.34l-3.43-8.73
					c-0.11-0.27,0-0.58,0.25-0.72l4.36-2.52c0.25-0.14,0.57-0.08,0.75,0.14l5.84,7.33c1.48-0.54,3.01-0.95,4.57-1.22l1.39-9.27
					c0.04-0.29,0.29-0.5,0.58-0.5h5.03c0.29,0,0.54,0.21,0.58,0.5l1.39,9.27c1.55,0.27,3.09,0.68,4.57,1.22l5.84-7.33
					c0.18-0.23,0.5-0.29,0.75-0.14l4.36,2.52c0.25,0.14,0.36,0.45,0.25,0.72l-3.43,8.73c1.21,1.01,2.33,2.13,3.34,3.34l8.73-3.43
					c0.27-0.11,0.58,0,0.72,0.25l2.52,4.36c0.14,0.25,0.08,0.57-0.14,0.75L63,32.84c0.55,1.49,0.96,3.02,1.22,4.56l9.27,1.4
					c0.29,0.04,0.5,0.29,0.5,0.58v5.03c0,0.29-0.21,0.54-0.5,0.58l-9.27,1.4c-0.26,1.54-0.68,3.08-1.22,4.56l7.34,5.84
					c0.23,0.18,0.29,0.5,0.14,0.75l-2.52,4.36c-0.14,0.25-0.45,0.36-0.72,0.25l-8.73-3.43c-1.01,1.21-2.14,2.33-3.34,3.34l3.43,8.73
					c0.11,0.27,0,0.58-0.25,0.72l-4.36,2.51c-0.25,0.14-0.57,0.08-0.75-0.14l-5.84-7.33c-1.49,0.55-3.02,0.96-4.57,1.22l-1.39,9.27
					C41.39,77.35,41.14,77.56,40.85,77.56z M36.33,76.39h4.02l1.38-9.2c0.04-0.25,0.24-0.45,0.49-0.49
					c1.75-0.27,3.48-0.73,5.16-1.37c0.24-0.09,0.51-0.02,0.67,0.18l5.79,7.27l3.48-2.01l-3.41-8.66c-0.09-0.24-0.02-0.51,0.18-0.67
					c1.38-1.11,2.65-2.38,3.78-3.77c0.16-0.2,0.43-0.27,0.67-0.18l8.66,3.41l2.02-3.49l-7.28-5.79c-0.2-0.16-0.27-0.43-0.18-0.67
					c0.65-1.67,1.11-3.4,1.38-5.15c0.04-0.25,0.24-0.45,0.49-0.49l9.2-1.38v-4.03l-9.2-1.38c-0.25-0.04-0.45-0.24-0.49-0.49
					c-0.27-1.74-0.73-3.48-1.38-5.15c-0.09-0.24-0.02-0.51,0.18-0.67l7.28-5.79l-2.02-3.49l-8.66,3.41
					c-0.24,0.1-0.51,0.02-0.67-0.18c-1.12-1.39-2.39-2.66-3.78-3.77c-0.2-0.16-0.27-0.43-0.18-0.67l3.41-8.66l-3.48-2.01l-5.79,7.27
					c-0.16,0.2-0.43,0.27-0.67,0.18c-1.67-0.64-3.4-1.11-5.16-1.38c-0.25-0.04-0.45-0.24-0.49-0.49l-1.38-9.19h-4.02l-1.38,9.19
					c-0.04,0.25-0.24,0.45-0.49,0.49c-1.76,0.27-3.49,0.74-5.15,1.38c-0.24,0.09-0.51,0.02-0.67-0.18l-5.79-7.27l-3.49,2.01
					l3.41,8.66c0.09,0.24,0.02,0.51-0.18,0.67c-1.37,1.1-2.64,2.37-3.77,3.77c-0.16,0.2-0.43,0.27-0.67,0.18l-8.66-3.41L7.46,26.4
					l7.27,5.78c0.2,0.16,0.27,0.43,0.18,0.67c-0.64,1.67-1.11,3.41-1.38,5.16c-0.04,0.25-0.24,0.45-0.49,0.49l-9.19,1.38v4.03
					l9.19,1.38c0.25,0.04,0.45,0.24,0.49,0.49c0.28,1.76,0.74,3.49,1.38,5.15c0.09,0.24,0.02,0.51-0.18,0.67L7.46,57.4l2.01,3.49
					l8.66-3.41c0.24-0.1,0.51-0.02,0.67,0.18c1.13,1.4,2.4,2.67,3.77,3.77c0.2,0.16,0.27,0.43,0.18,0.67l-3.41,8.66l3.49,2.01
					l5.79-7.28c0.16-0.2,0.43-0.27,0.67-0.18c1.66,0.65,3.39,1.11,5.15,1.38c0.25,0.04,0.45,0.24,0.49,0.49L36.33,76.39z"/>
			</g>
			<g>
				<path d="M38.34,59.36c-9.63,0-17.46-7.83-17.46-17.46c0-9.63,7.83-17.46,17.46-17.46c9.63,0,17.47,7.83,17.47,17.46
					C55.8,51.53,47.97,59.36,38.34,59.36z M38.34,25.61c-8.98,0-16.29,7.31-16.29,16.29c0,8.98,7.31,16.29,16.29,16.29
					c8.98,0,16.29-7.31,16.29-16.29C54.63,32.92,47.32,25.61,38.34,25.61z"/>
			</g>
			<path class="st4" d="M38.34,28.07c0.6,0,1.08,0.49,1.08,1.08c0,0.6-0.48,1.08-1.08,1.08c-0.59,0-1.08-0.48-1.08-1.08
				C37.26,28.56,37.74,28.07,38.34,28.07"/>
			<path class="st4" d="M45.25,29.93c0.52,0.3,0.69,0.96,0.4,1.47c-0.3,0.52-0.96,0.69-1.48,0.4c-0.52-0.3-0.69-0.96-0.4-1.48
				C44.07,29.8,44.73,29.63,45.25,29.93"/>
			<path class="st4" d="M50.31,34.99c0.3,0.52,0.12,1.17-0.39,1.47c-0.52,0.3-1.18,0.12-1.48-0.39c-0.3-0.52-0.12-1.18,0.4-1.48
				C49.35,34.3,50.01,34.47,50.31,34.99"/>
			<path class="st4" d="M52.16,41.9c0,0.6-0.49,1.08-1.08,1.08c-0.6,0-1.08-0.49-1.08-1.08c0-0.6,0.48-1.08,1.08-1.08
				C51.68,40.82,52.16,41.3,52.16,41.9"/>
			<path class="st4" d="M50.31,48.81c-0.3,0.52-0.96,0.7-1.47,0.4c-0.52-0.3-0.7-0.97-0.4-1.48c0.3-0.52,0.96-0.69,1.48-0.39
				C50.44,47.64,50.61,48.29,50.31,48.81"/>
			<path class="st4" d="M45.25,53.87c-0.52,0.29-1.18,0.12-1.48-0.39c-0.3-0.52-0.12-1.18,0.4-1.48c0.52-0.29,1.18-0.12,1.48,0.4
				C45.95,52.91,45.77,53.57,45.25,53.87"/>
			<path class="st4" d="M38.34,55.73c-0.59,0-1.08-0.49-1.08-1.08c0-0.6,0.49-1.08,1.08-1.08c0.6,0,1.08,0.48,1.08,1.08
				C39.42,55.24,38.94,55.73,38.34,55.73"/>
			<path class="st4" d="M31.43,53.87c-0.52-0.3-0.69-0.96-0.4-1.47c0.3-0.52,0.96-0.69,1.48-0.4c0.51,0.3,0.69,0.97,0.39,1.48
				C32.6,54,31.94,54.17,31.43,53.87"/>
			<path class="st4" d="M26.36,48.81c-0.3-0.52-0.12-1.17,0.4-1.47c0.52-0.3,1.18-0.12,1.48,0.39c0.3,0.52,0.12,1.18-0.4,1.48
				C27.32,49.5,26.66,49.33,26.36,48.81"/>
			<path class="st4" d="M24.51,41.9c0-0.6,0.48-1.08,1.08-1.08c0.6,0,1.08,0.49,1.08,1.08c0,0.6-0.48,1.08-1.08,1.08
				C25,42.98,24.51,42.5,24.51,41.9"/>
			<path class="st4" d="M26.36,34.99c0.3-0.52,0.96-0.69,1.48-0.4c0.52,0.3,0.69,0.96,0.4,1.48c-0.3,0.51-0.96,0.69-1.48,0.39
				C26.24,36.16,26.07,35.51,26.36,34.99"/>
			<path class="st4" d="M31.43,29.93c0.51-0.3,1.17-0.13,1.48,0.39c0.3,0.52,0.12,1.18-0.39,1.48c-0.52,0.29-1.18,0.12-1.48-0.4
				C30.73,30.88,30.91,30.23,31.43,29.93"/>
		</g>
	</g>
</g>
<g id="Planning">
	<g>
		<g>
			<g id="XMLID_605_">
				<g>
					<path class="st2" d="M9.45,58.03c0.55,0.55,0.89,1.32,0.89,2.15c0,0.84-0.34,1.6-0.89,2.15l-0.04,0.04
						c-0.55,0.53-1.29,0.86-2.12,0.86c-0.84,0-1.6-0.35-2.15-0.9c-0.55-0.55-0.89-1.31-0.89-2.15c0-0.85,0.33-1.6,0.89-2.15
						c0.55-0.56,1.32-0.89,2.15-0.89c0.01,0,0.01,0,0.02,0c0.31,0,0.61,0.05,0.89,0.14c0.19,0.06,0.37,0.13,0.54,0.22
						c0.01,0,0.02,0.01,0.03,0.01c0.16,0.1,0.32,0.2,0.48,0.33C9.32,57.89,9.39,57.96,9.45,58.03z"/>
					<path class="st5" d="M72.57,18.01c0.87,0.87,1.42,2.08,1.42,3.4c0,1.34-0.55,2.54-1.42,3.41l-0.06,0.06
						c-0.66,0.65-1.51,1.1-2.46,1.28v-0.82c0-0.48-0.4-0.88-0.9-0.88c0.83,0,1.57-0.33,2.11-0.85l0.04-0.04
						c0.55-0.55,0.89-1.32,0.89-2.16c0-0.84-0.34-1.6-0.89-2.14c-0.56-0.56-1.31-0.89-2.15-0.89c-0.84,0-1.6,0.33-2.15,0.89
						c-0.2,0.2-0.37,0.42-0.51,0.67c0.02-0.04,0.04-0.08,0.06-0.13c0.19-0.45-0.04-0.97-0.49-1.15l-0.66-0.26
						c0.11-0.14,0.22-0.26,0.35-0.39c0.87-0.87,2.08-1.41,3.4-1.41C70.49,16.6,71.7,17.14,72.57,18.01z"/>
					<path class="st5" d="M72.57,56.78c0.87,0.88,1.42,2.08,1.42,3.41c0,1.34-0.55,2.53-1.42,3.41l-0.06,0.05
						c-0.87,0.85-2.05,1.37-3.35,1.37c-1.33,0-2.52-0.55-3.4-1.41c-0.21-0.21-0.41-0.45-0.57-0.69l0.74-0.32
						c0.45-0.19,0.65-0.71,0.45-1.17c0.16,0.35,0.37,0.66,0.63,0.93c0.54,0.55,1.32,0.9,2.15,0.9c0.83,0,1.57-0.33,2.11-0.86
						l0.04-0.04c0.55-0.55,0.89-1.31,0.89-2.15c0-0.84-0.34-1.6-0.89-2.15c-0.56-0.56-1.31-0.89-2.15-0.89c0.5,0,0.9-0.41,0.9-0.89
						v-0.81C71.03,55.64,71.9,56.11,72.57,56.78z"/>
					<path class="st2" d="M71.32,19.27c0.55,0.55,0.89,1.31,0.89,2.14c0,0.85-0.34,1.61-0.89,2.16l-0.04,0.04
						c-0.55,0.52-1.29,0.85-2.11,0.85c-0.02,0-0.05,0-0.07,0c-0.13-0.01-0.25-0.02-0.38-0.04c-0.01,0-0.02,0-0.03,0
						c-0.14-0.02-0.27-0.06-0.41-0.1c-0.28-0.08-0.54-0.21-0.77-0.36c-0.13-0.08-0.24-0.16-0.35-0.26c-0.11-0.1-0.21-0.2-0.31-0.31
						c-0.19-0.22-0.34-0.47-0.47-0.74c-0.16-0.38-0.25-0.8-0.25-1.24c0-0.54,0.14-1.04,0.38-1.47c0.14-0.25,0.31-0.48,0.51-0.67
						c0.56-0.56,1.32-0.89,2.15-0.89C70,18.38,70.76,18.71,71.32,19.27z"/>
					<path class="st2" d="M71.32,58.03c0.55,0.55,0.89,1.32,0.89,2.15c0,0.84-0.34,1.6-0.89,2.15l-0.04,0.04
						c-0.55,0.53-1.29,0.86-2.11,0.86c-0.84,0-1.61-0.35-2.15-0.9c-0.26-0.26-0.48-0.57-0.63-0.93c-0.02-0.05-0.04-0.1-0.06-0.16
						c-0.02-0.06-0.04-0.11-0.06-0.17c-0.03-0.1-0.06-0.2-0.08-0.29c-0.04-0.2-0.06-0.4-0.06-0.61c0-0.85,0.34-1.6,0.89-2.15
						c0.56-0.56,1.32-0.89,2.15-0.89C70,57.15,70.76,57.48,71.32,58.03z"/>
					<path class="st5" d="M70.06,55.45v0.81c0,0.48-0.4,0.89-0.9,0.89c-0.84,0-1.6,0.33-2.15,0.89c-0.55,0.55-0.89,1.31-0.89,2.15
						c0,0.21,0.02,0.41,0.05,0.6l0.01,0.02c0.02,0.1,0.05,0.19,0.08,0.29c0.02,0.06,0.03,0.11,0.06,0.17
						c0.02,0.06,0.04,0.11,0.06,0.16c0.21,0.46,0,0.97-0.45,1.17l-0.74,0.32c-0.33-0.49-0.57-1.03-0.71-1.62l-0.03-0.16
						c-0.03-0.16-0.06-0.3-0.08-0.46c-0.02-0.16-0.03-0.32-0.03-0.49c0-1.34,0.54-2.53,1.42-3.41c0.13-0.13,0.25-0.24,0.39-0.35
						c0.1-0.08,0.21-0.16,0.32-0.23c0.33-0.22,0.7-0.42,1.09-0.55c0.11-0.04,0.21-0.08,0.32-0.11c0.03-0.01,0.06-0.02,0.1-0.03
						c0.1-0.02,0.19-0.04,0.29-0.06c0.28-0.06,0.58-0.09,0.89-0.09C69.48,55.36,69.77,55.39,70.06,55.45z"/>
					<path class="st5" d="M70.06,26.16v29.29c-0.29-0.06-0.58-0.09-0.9-0.09c-0.3,0-0.6,0.03-0.89,0.09v-29.3
						c0.28,0.06,0.58,0.09,0.89,0.09C69.47,26.23,69.77,26.21,70.06,26.16z"/>
					<path class="st5" d="M70.06,25.34v0.82c-0.29,0.05-0.59,0.08-0.9,0.08c-0.3,0-0.6-0.03-0.89-0.09
						c-0.14-0.02-0.26-0.05-0.39-0.09c-0.48-0.13-0.94-0.33-1.35-0.6c-0.1-0.07-0.2-0.14-0.29-0.21c-0.16-0.12-0.3-0.24-0.44-0.38
						c-0.02-0.02-0.03-0.03-0.05-0.05c-0.21-0.21-0.4-0.44-0.57-0.68c-0.33-0.49-0.58-1.03-0.72-1.63l0.74-0.32
						c0.46-0.19,0.97,0.01,1.17,0.46c0.13,0.27,0.28,0.52,0.47,0.74c0.05,0.06,0.11,0.13,0.17,0.18c0.05,0.05,0.1,0.09,0.14,0.13
						c0.32,0.29,0.7,0.51,1.12,0.62c0.13,0.05,0.27,0.08,0.41,0.1c0.01,0,0.02,0,0.03,0c0.13,0.03,0.25,0.04,0.38,0.04
						c0.02,0,0.05,0,0.07,0C69.66,24.46,70.06,24.86,70.06,25.34z"/>
					<path class="st5" d="M69.27,76.57v1.85H38.23v-0.05c1.29,0,2.47-0.52,3.35-1.36l0.06-0.05c0.13-0.13,0.23-0.25,0.35-0.39H69.27
						z"/>
					<path class="st5" d="M68.71,24.42c0.13,0.02,0.25,0.03,0.38,0.04C68.97,24.46,68.84,24.45,68.71,24.42z"/>
					<path class="st5" d="M68.28,24.33c0.13,0.04,0.27,0.08,0.41,0.1C68.55,24.4,68.41,24.37,68.28,24.33z"/>
					<path class="st2" d="M68.28,26.15v29.3c-0.11,0.01-0.2,0.04-0.29,0.06c-0.04,0.01-0.07,0.02-0.1,0.03
						c-0.11,0.03-0.21,0.06-0.32,0.11c-0.39,0.13-0.76,0.32-1.09,0.55c-0.11,0.07-0.22,0.15-0.32,0.23
						c-0.14,0.11-0.26,0.22-0.39,0.35c-0.88,0.88-1.42,2.08-1.42,3.41c0,0.17,0.01,0.33,0.03,0.49c0.02,0.21,0.05,0.42,0.11,0.61
						l-22.12,9.78c-0.08-0.15-0.17-0.28-0.28-0.42c-0.09-0.14-0.2-0.26-0.32-0.38c-0.03-0.05-0.07-0.09-0.11-0.13
						c-0.08-0.08-0.17-0.16-0.25-0.22c-0.13-0.12-0.25-0.21-0.39-0.3c-0.14-0.11-0.28-0.2-0.43-0.27c-0.11-0.06-0.22-0.12-0.33-0.17
						c-0.34-0.17-0.71-0.28-1.1-0.35V35.65l26.05-11.51c0.17,0.24,0.36,0.47,0.57,0.68c0.01,0.02,0.03,0.04,0.05,0.05
						c0.14,0.14,0.28,0.26,0.44,0.38c0.1,0.07,0.2,0.14,0.29,0.21c0.41,0.27,0.87,0.48,1.35,0.6C68.01,26.1,68.14,26.13,68.28,26.15
						z"/>
					<path class="st5" d="M67.89,26.06c0.13,0.04,0.25,0.07,0.39,0.09C68.14,26.13,68.01,26.1,67.89,26.06z"/>
					<path class="st5" d="M68.28,55.45c-0.1,0.02-0.2,0.04-0.29,0.06C68.08,55.49,68.17,55.46,68.28,55.45z"/>
					<path class="st5" d="M67.89,55.54c-0.11,0.03-0.21,0.07-0.32,0.11C67.67,55.6,67.78,55.57,67.89,55.54z"/>
					<path class="st5" d="M67.51,23.96c0.24,0.16,0.49,0.28,0.77,0.36c-0.42-0.12-0.8-0.33-1.12-0.62
						C67.26,23.8,67.38,23.89,67.51,23.96z"/>
					<path class="st5" d="M67.15,23.7c-0.05-0.04-0.1-0.08-0.14-0.13c-0.06-0.06-0.12-0.13-0.17-0.18
						C66.94,23.5,67.05,23.6,67.15,23.7z"/>
					<path class="st5" d="M66.07,18.66c0.45,0.18,0.67,0.7,0.49,1.15c-0.02,0.05-0.04,0.09-0.06,0.13
						c-0.21,0.37-0.67,0.54-1.09,0.37l-0.85-0.34c0.19-0.58,0.48-1.11,0.85-1.57L66.07,18.66z"/>
					<path class="st5" d="M66.25,25.25c0.09,0.07,0.2,0.14,0.29,0.21C66.44,25.39,66.35,25.32,66.25,25.25z"/>
					<path class="st5" d="M66.47,56.19c-0.11,0.08-0.23,0.16-0.32,0.23C66.26,56.34,66.36,56.26,66.47,56.19z"/>
					<path class="st5" d="M66.26,61.09c0.02,0.06,0.04,0.11,0.06,0.17C66.29,61.2,66.28,61.15,66.26,61.09z"/>
					<path class="st5" d="M66.18,60.8l-0.01-0.02c-0.03-0.19-0.05-0.38-0.05-0.6C66.12,60.4,66.14,60.6,66.18,60.8z"/>
					<path class="st5" d="M66.5,19.94c-0.24,0.43-0.38,0.94-0.38,1.47c0,0.44,0.1,0.86,0.25,1.24c-0.2-0.45-0.71-0.65-1.17-0.46
						l-0.74,0.32c-0.08-0.35-0.13-0.72-0.13-1.1c0-0.51,0.08-0.99,0.22-1.44l0.85,0.34C65.83,20.48,66.29,20.31,66.5,19.94z"/>
					<path class="st5" d="M65.76,24.82c0.02,0.02,0.03,0.03,0.05,0.05C65.79,24.86,65.77,24.84,65.76,24.82z"/>
					<path class="st5" d="M43.88,9.77l21.53,8.62c-0.37,0.46-0.66,0.99-0.85,1.57l-21.34-8.55C43.54,10.93,43.77,10.37,43.88,9.77z"
						/>
					<path class="st5" d="M65.19,62.91l-22.22,9.81c-0.1-0.59-0.3-1.16-0.61-1.66l22.12-9.78C64.61,61.87,64.85,62.42,65.19,62.91z"
						/>
					<path class="st5" d="M65.19,24.14L39.14,35.65v-0.58c0-0.33-0.2-0.65-0.54-0.81l-0.36-0.17l26.23-11.59
						C64.6,23.11,64.85,23.65,65.19,24.14z"/>
					<path class="st2" d="M43.22,11.42l21.34,8.55c-0.14,0.45-0.22,0.94-0.22,1.44c0,0.38,0.05,0.75,0.13,1.1L38.24,34.1
						l-26.4-11.65c0.17-0.49,0.27-1.02,0.27-1.58c0-0.29-0.03-0.58-0.08-0.85l23.01-8.68c0.08,0.15,0.18,0.28,0.27,0.41
						c0,0.01,0.02,0.02,0.02,0.02c0.1,0.14,0.2,0.26,0.32,0.38c0.03,0.04,0.06,0.07,0.1,0.11h0.01c0.22,0.22,0.45,0.42,0.7,0.58
						c0.13,0.09,0.26,0.17,0.4,0.24c0.13,0.07,0.27,0.14,0.42,0.2c0.12,0.05,0.24,0.1,0.35,0.14c0.07,0.02,0.14,0.04,0.21,0.06
						c0.11,0.03,0.22,0.06,0.32,0.08c0.02,0.01,0.04,0.01,0.07,0.02c0.14,0.03,0.29,0.05,0.44,0.06c0.17,0.02,0.32,0.03,0.49,0.03
						c0.15,0,0.28-0.01,0.43-0.02c0.67-0.06,1.31-0.25,1.87-0.57c0.12-0.06,0.23-0.13,0.34-0.2c0.25-0.17,0.49-0.36,0.71-0.58
						l0.06-0.04c0.02-0.02,0.03-0.03,0.04-0.05C42.84,11.97,43.05,11.7,43.22,11.42z"/>
					<path class="st5" d="M64.45,61.13l0.03,0.16c-0.06-0.19-0.09-0.4-0.11-0.61C64.39,60.83,64.42,60.98,64.45,61.13z"/>
					<rect x="18.92" y="80.14" class="st5" width="38.64" height="1.85"/>
					<path class="st5" d="M43.97,8.84c0,0.32-0.03,0.63-0.09,0.93l-0.75-0.3c-0.46-0.17-0.96,0.05-1.15,0.5
						c-0.01,0.02-0.02,0.04-0.03,0.06c0.15-0.36,0.24-0.77,0.24-1.19c0-0.84-0.34-1.61-0.9-2.14c-0.55-0.55-1.31-0.9-2.15-0.9
						c-0.85,0-1.61,0.34-2.15,0.9C36.45,7.23,36.12,8,36.12,8.84c0,0.41,0.08,0.8,0.22,1.15c-0.02-0.02-0.03-0.05-0.04-0.08
						c-0.17-0.46-0.68-0.69-1.13-0.52l-0.76,0.28c-0.05-0.27-0.08-0.56-0.08-0.84c0-1.33,0.55-2.53,1.41-3.41
						c0.87-0.86,2.07-1.4,3.41-1.4c1.33,0,2.53,0.54,3.41,1.4C43.44,6.3,43.97,7.51,43.97,8.84z"/>
					<path class="st5" d="M43.13,9.47l0.75,0.3c-0.12,0.6-0.34,1.15-0.66,1.65c-0.17,0.27-0.39,0.54-0.61,0.78
						c-0.03,0.03-0.07,0.06-0.1,0.09c-0.22,0.21-0.46,0.4-0.71,0.58c-0.11,0.07-0.22,0.14-0.34,0.2c-0.56,0.31-1.2,0.51-1.87,0.57
						c-0.14,0.01-0.28,0.02-0.43,0.02c-0.16,0-0.33-0.01-0.49-0.03c-0.16-0.01-0.3-0.03-0.44-0.06c-0.03-0.01-0.05-0.01-0.07-0.02
						c-0.11-0.02-0.22-0.05-0.32-0.08c-0.07-0.02-0.14-0.04-0.21-0.06c-0.11-0.04-0.23-0.09-0.35-0.14
						c-0.14-0.06-0.28-0.13-0.42-0.2c-0.14-0.08-0.27-0.16-0.4-0.24c-0.25-0.16-0.49-0.36-0.7-0.58c-0.04-0.03-0.08-0.07-0.1-0.11
						c-0.12-0.12-0.23-0.24-0.32-0.38c0,0-0.02-0.01-0.02-0.02c-0.1-0.12-0.19-0.26-0.27-0.41c-0.31-0.5-0.54-1.06-0.63-1.66
						l0.76-0.28c0.45-0.17,0.96,0.06,1.13,0.52c0.01,0.03,0.02,0.06,0.04,0.08c0.04,0.11,0.09,0.2,0.14,0.3
						c0.02,0.04,0.05,0.09,0.07,0.13c0.06,0.09,0.11,0.17,0.17,0.24c0.09,0.12,0.19,0.22,0.28,0.32c0.09,0.09,0.18,0.17,0.29,0.25
						c0.05,0.04,0.09,0.08,0.14,0.11c0.01,0.01,0.02,0.01,0.03,0.01c0.03,0.03,0.07,0.05,0.11,0.07c0.06,0.04,0.12,0.08,0.18,0.11
						c0.1,0.06,0.21,0.1,0.31,0.14c0.07,0.04,0.13,0.06,0.2,0.08c0.03,0.01,0.06,0.02,0.09,0.02c0.11,0.04,0.21,0.06,0.32,0.08
						c0.02,0,0.04,0,0.06,0c0.13,0.03,0.29,0.04,0.44,0.04c0.11,0,0.21-0.01,0.3-0.02c0.09,0,0.18-0.02,0.26-0.04
						c0.23-0.04,0.45-0.11,0.65-0.2c0.06-0.01,0.12-0.04,0.17-0.08c0.02-0.01,0.04-0.01,0.05-0.02c0.1-0.04,0.19-0.1,0.27-0.16
						c0.05-0.04,0.1-0.07,0.15-0.12c0.09-0.07,0.17-0.14,0.25-0.22h0.01l0.02-0.04l0.01-0.01c0.13-0.12,0.24-0.24,0.32-0.38
						c0.14-0.18,0.24-0.37,0.33-0.57c0.01-0.02,0.02-0.04,0.03-0.06C42.17,9.52,42.68,9.31,43.13,9.47z"/>
					<path class="st5" d="M42.97,72.72c0.06,0.27,0.08,0.54,0.08,0.83c0,1.15-0.4,2.19-1.05,3.02h-3.38
						c0.67-0.08,1.28-0.38,1.73-0.83l0.04-0.04c0.55-0.56,0.89-1.32,0.89-2.15c0-0.36-0.07-0.71-0.17-1.03
						c0.17,0.47,0.67,0.69,1.13,0.54L42.97,72.72z"/>
					<path class="st5" d="M42.97,72.72l-0.74,0.33c-0.46,0.16-0.96-0.07-1.13-0.54c-0.01-0.02-0.02-0.05-0.03-0.07
						c-0.04-0.09-0.07-0.18-0.12-0.25c-0.03-0.06-0.06-0.13-0.1-0.19c-0.06-0.1-0.12-0.19-0.19-0.28c-0.01-0.02-0.03-0.03-0.04-0.05
						c-0.07-0.1-0.16-0.19-0.24-0.28c-0.04-0.04-0.09-0.08-0.13-0.12c-0.03-0.03-0.07-0.06-0.1-0.08c-0.06-0.05-0.12-0.1-0.19-0.15
						c-0.11-0.08-0.21-0.15-0.33-0.21c-0.06-0.03-0.11-0.05-0.17-0.08c-0.11-0.05-0.22-0.1-0.34-0.13
						c-0.11-0.04-0.21-0.06-0.32-0.08c-0.17-0.04-0.37-0.06-0.56-0.06c0.49-0.01,0.88-0.41,0.88-0.89v-0.8
						c0.39,0.07,0.76,0.19,1.1,0.35c0.12,0.05,0.23,0.11,0.33,0.17c0.14,0.08,0.29,0.18,0.43,0.27c0.14,0.1,0.27,0.2,0.39,0.3
						c0.13,0.12,0.25,0.23,0.36,0.35c0.12,0.12,0.22,0.25,0.32,0.38c0.11,0.14,0.19,0.27,0.28,0.42
						C42.67,71.56,42.87,72.12,42.97,72.72z"/>
					<path class="st5" d="M42.61,12.2c0.22-0.24,0.44-0.51,0.61-0.78C43.05,11.7,42.84,11.97,42.61,12.2z"/>
					<path class="st5" d="M42.61,12.2c-0.01,0.02-0.02,0.03-0.04,0.05l-0.06,0.04C42.54,12.26,42.58,12.23,42.61,12.2z"/>
					<path class="st5" d="M42.35,71.06c-0.09-0.15-0.17-0.28-0.28-0.42C42.18,70.78,42.28,70.92,42.35,71.06z"/>
					<path class="st5" d="M42.07,70.64c-0.1-0.13-0.21-0.26-0.32-0.38C41.88,70.38,41.99,70.51,42.07,70.64z"/>
					<path class="st2" d="M42.2,8.84c0,0.42-0.09,0.83-0.24,1.19c-0.09,0.2-0.2,0.4-0.33,0.57c-0.09,0.14-0.2,0.26-0.32,0.38
						l-0.01,0.01c0.01,0.01-0.01,0.03-0.03,0.04c-0.08,0.09-0.17,0.16-0.25,0.22c-0.13,0.1-0.27,0.19-0.42,0.27
						c-0.01,0.01-0.03,0.01-0.05,0.02c-0.05,0.03-0.11,0.06-0.17,0.08c-0.21,0.09-0.42,0.16-0.65,0.2
						c-0.09,0.02-0.17,0.04-0.26,0.04c-0.1,0.01-0.19,0.02-0.3,0.02c-0.15,0-0.29-0.01-0.44-0.04c-0.02,0-0.04,0-0.06,0
						c-0.11-0.02-0.22-0.04-0.32-0.08c-0.03,0-0.06-0.01-0.09-0.02c-0.08-0.02-0.14-0.05-0.2-0.08c-0.11-0.04-0.21-0.08-0.31-0.14
						c-0.06-0.03-0.12-0.06-0.18-0.11c-0.04-0.02-0.08-0.04-0.11-0.07c-0.06-0.03-0.12-0.07-0.17-0.12
						c-0.11-0.08-0.2-0.17-0.29-0.25c-0.1-0.1-0.19-0.21-0.28-0.32c-0.06-0.08-0.11-0.16-0.17-0.24c-0.02-0.04-0.05-0.08-0.07-0.13
						c-0.05-0.1-0.1-0.19-0.14-0.3c-0.14-0.35-0.22-0.74-0.22-1.15c0-0.84,0.33-1.61,0.89-2.14c0.55-0.55,1.3-0.9,2.15-0.9
						c0.84,0,1.6,0.34,2.15,0.9C41.86,7.23,42.2,8,42.2,8.84z"/>
					<path class="st5" d="M38.61,76.57h3.38c-0.12,0.14-0.22,0.26-0.35,0.39l-0.06,0.05c-0.88,0.85-2.06,1.36-3.35,1.36
						c-1.33,0-2.53-0.55-3.4-1.41c-0.13-0.13-0.24-0.25-0.35-0.39h3.36c0.13,0.02,0.25,0.03,0.39,0.03
						C38.36,76.6,38.49,76.59,38.61,76.57z"/>
					<path class="st5" d="M41.46,13.07c0.12-0.07,0.23-0.14,0.34-0.2C41.69,12.94,41.57,13.01,41.46,13.07z"/>
					<path class="st5" d="M41.64,70.14c0.04,0.04,0.08,0.08,0.11,0.13c-0.11-0.12-0.23-0.23-0.36-0.35
						C41.48,69.98,41.56,70.06,41.64,70.14z"/>
					<path class="st5" d="M41.62,10.6c-0.08,0.14-0.18,0.26-0.32,0.38C41.42,10.87,41.54,10.74,41.62,10.6z"/>
					<path class="st5" d="M41.39,69.91c-0.12-0.11-0.25-0.21-0.39-0.3C41.14,69.7,41.26,69.8,41.39,69.91z"/>
					<path class="st5" d="M41.26,11.03c0.02-0.01,0.04-0.03,0.03-0.04L41.26,11.03L41.26,11.03z"/>
					<path class="st2" d="M41.1,72.51c0.11,0.32,0.17,0.67,0.17,1.03c0,0.84-0.34,1.6-0.89,2.15l-0.04,0.04
						c-0.46,0.45-1.06,0.75-1.73,0.83h-0.77c-0.68-0.09-1.3-0.41-1.76-0.87c-0.55-0.56-0.9-1.32-0.9-2.15c0-0.31,0.05-0.6,0.13-0.88
						c0.03-0.05,0.06-0.1,0.08-0.16c0.1-0.29,0.25-0.58,0.44-0.82c0.1-0.12,0.2-0.24,0.31-0.35c0.11-0.11,0.22-0.2,0.35-0.29h0.01
						c0.12-0.09,0.24-0.16,0.37-0.23c0.01,0,0.02-0.01,0.03-0.02c0.13-0.06,0.26-0.11,0.39-0.16c0.02,0,0.03-0.01,0.04-0.01
						c0.13-0.04,0.26-0.08,0.41-0.1c0.02,0,0.04-0.01,0.06,0c0.13-0.03,0.26-0.04,0.4-0.04c0.01,0,0.02,0,0.03,0h0.02
						c0.01,0,0.01,0,0.02,0c0.19,0,0.38,0.02,0.56,0.06c0.11,0.02,0.21,0.04,0.32,0.08c0.12,0.03,0.24,0.08,0.34,0.13
						c0.06,0.03,0.11,0.05,0.17,0.08c0.12,0.06,0.22,0.13,0.33,0.21c0.07,0.05,0.12,0.1,0.19,0.15c0.04,0.02,0.07,0.05,0.1,0.08
						c0.04,0.04,0.09,0.08,0.13,0.12c0.09,0.09,0.17,0.18,0.24,0.28c0.01,0.02,0.03,0.03,0.04,0.05c0.07,0.09,0.13,0.18,0.19,0.28
						c0.04,0.06,0.07,0.13,0.1,0.19c0.05,0.08,0.09,0.17,0.12,0.25C41.08,72.47,41.09,72.49,41.1,72.51z"/>
					<path class="st5" d="M41.07,72.45c-0.03-0.09-0.07-0.18-0.12-0.25C41,72.27,41.03,72.36,41.07,72.45z"/>
					<path class="st5" d="M41.01,11.26c-0.05,0.05-0.1,0.08-0.15,0.12c-0.09,0.06-0.18,0.12-0.27,0.16
						C40.74,11.45,40.88,11.35,41.01,11.26z"/>
					<path class="st5" d="M41,69.61c-0.14-0.1-0.28-0.2-0.43-0.27C40.72,69.42,40.86,69.5,41,69.61z"/>
					<path class="st5" d="M40.85,72.01c-0.06-0.1-0.12-0.19-0.19-0.28C40.74,71.81,40.79,71.91,40.85,72.01z"/>
					<path class="st5" d="M40.63,71.68c-0.08-0.1-0.16-0.19-0.24-0.28C40.47,71.48,40.56,71.58,40.63,71.68z"/>
					<path class="st5" d="M40.57,69.34c-0.11-0.06-0.22-0.12-0.33-0.17C40.36,69.22,40.46,69.28,40.57,69.34z"/>
					<path class="st5" d="M40.38,11.63c0.06-0.02,0.12-0.05,0.17-0.08C40.49,11.59,40.43,11.62,40.38,11.63z"/>
					<path class="st5" d="M40.26,71.28c-0.03-0.03-0.06-0.06-0.1-0.08C40.19,71.22,40.23,71.25,40.26,71.28z"/>
					<path class="st5" d="M39.46,11.86c0.09,0,0.18-0.02,0.26-0.04C39.63,11.84,39.55,11.86,39.46,11.86z"/>
					<path class="st5" d="M39.64,70.85c-0.06-0.03-0.11-0.05-0.17-0.08C39.54,70.8,39.59,70.82,39.64,70.85z"/>
					<path class="st5" d="M39.16,13.65c0.15,0,0.29-0.01,0.43-0.02C39.44,13.65,39.3,13.65,39.16,13.65z"/>
					<path class="st5" d="M38.72,11.84c0.14,0.03,0.29,0.04,0.44,0.04C39.01,11.88,38.85,11.87,38.72,11.84z"/>
					<path class="st5" d="M38.67,13.62c0.16,0.02,0.32,0.03,0.49,0.03C38.99,13.65,38.84,13.65,38.67,13.62z"/>
					<path class="st5" d="M39.14,68.82v0.8c0,0.48-0.39,0.88-0.88,0.89c-0.01,0-0.01,0-0.02,0h-0.02c-0.01,0-0.02,0-0.03,0
						c-0.47-0.02-0.85-0.41-0.85-0.89v-0.8c0.29-0.06,0.59-0.09,0.89-0.09C38.54,68.73,38.84,68.76,39.14,68.82z"/>
					<path class="st5" d="M39.14,35.65v33.17c-0.01-0.01-0.01-0.01-0.02-0.01V35.66L39.14,35.65z"/>
					<path class="st5" d="M39.14,35.07v0.58l-0.02,0.01v33.15c0.01,0,0.01,0,0.02,0.01c-0.29-0.06-0.59-0.09-0.9-0.09
						c-0.3,0-0.6,0.03-0.89,0.09v-0.01h0.01V35.66h-0.01v-0.59c0-0.33,0.2-0.65,0.53-0.81l0.37-0.17l0.36,0.17
						C38.93,34.42,39.14,34.74,39.14,35.07z"/>
					<path class="st5" d="M39.14,70.64c-0.11-0.04-0.21-0.06-0.32-0.08C38.92,70.59,39.03,70.6,39.14,70.64z"/>
					<path class="st5" d="M38.23,13.57c0.13,0.03,0.28,0.05,0.44,0.06C38.52,13.61,38.38,13.59,38.23,13.57z"/>
					<path class="st5" d="M38.34,11.76c0.11,0.04,0.21,0.06,0.32,0.08C38.55,11.82,38.45,11.8,38.34,11.76z"/>
					<path class="st5" d="M37.84,76.57h0.77c-0.12,0.02-0.25,0.03-0.38,0.03C38.1,76.6,37.97,76.59,37.84,76.57z"/>
					<path class="st5" d="M38.05,11.67c0.06,0.03,0.13,0.06,0.2,0.08C38.18,11.72,38.12,11.7,38.05,11.67z"/>
					<path class="st5" d="M38.24,34.1l-0.37,0.17c-0.33,0.16-0.53,0.48-0.53,0.81v0.59L11.29,24.14c-0.36,0.53-0.82,0.98-1.35,1.32
						c-0.52,0.34-1.11,0.58-1.73,0.69v29.3c-0.29-0.06-0.6-0.09-0.91-0.09c-0.29,0-0.58,0.03-0.86,0.08V25.6
						c0.28,0.05,0.56,0.08,0.86,0.08c1.3,0,2.48-0.53,3.35-1.36l0.06-0.05c0.51-0.51,0.91-1.13,1.14-1.82L38.24,34.1z"/>
					<path class="st5" d="M38.23,78.37v0.05H7.18v-1.85h27.3c0.11,0.14,0.22,0.26,0.35,0.39C35.7,77.83,36.91,78.37,38.23,78.37z"/>
					<path class="st5" d="M38.19,70.51c-0.13,0-0.27,0.01-0.4,0.04C37.92,70.52,38.06,70.51,38.19,70.51z"/>
					<path class="st5" d="M37.84,13.47c0.11,0.03,0.22,0.06,0.32,0.08C38.06,13.53,37.95,13.5,37.84,13.47z"/>
					<path class="st5" d="M38.19,70.51c-0.13,0-0.27,0.01-0.4,0.04c-0.02-0.01-0.04,0-0.06,0c-0.14,0.02-0.27,0.06-0.41,0.1
						c-0.01,0-0.02,0.01-0.04,0.01c-0.14,0.04-0.26,0.1-0.39,0.16c-0.01,0.01-0.02,0.02-0.03,0.02c-0.13,0.06-0.26,0.14-0.37,0.23
						h-0.01c-0.13,0.09-0.24,0.17-0.35,0.29c-0.02,0.01-0.04,0.03-0.06,0.05c-0.1,0.1-0.18,0.19-0.25,0.3
						c-0.23,0.29-0.41,0.62-0.52,0.98c-0.21,0.36-0.66,0.52-1.06,0.38l-0.76-0.33c0.1-0.59,0.31-1.16,0.62-1.66h0.01
						c0.18-0.29,0.38-0.56,0.6-0.8c0.23-0.24,0.49-0.47,0.76-0.65c0.27-0.2,0.57-0.36,0.88-0.5c0,0,0,0,0.01,0
						c0.15-0.07,0.29-0.13,0.45-0.17c0.17-0.06,0.32-0.1,0.49-0.13c0.01,0,0.03,0,0.04,0v0.8C37.34,70.1,37.72,70.49,38.19,70.51z"
						/>
					<path class="st5" d="M37.84,76.57h-3.36c-0.67-0.83-1.07-1.88-1.07-3.02c0-0.28,0.03-0.55,0.08-0.83l0.76,0.33
						c0.4,0.14,0.85-0.02,1.06-0.38c-0.08,0.27-0.13,0.56-0.13,0.88c0,0.84,0.34,1.6,0.9,2.15C36.54,76.16,37.16,76.48,37.84,76.57z
						"/>
					<path class="st5" d="M37.56,11.42c0.06,0.05,0.12,0.08,0.18,0.11C37.68,11.5,37.62,11.46,37.56,11.42z"/>
					<path class="st5" d="M37.74,70.55c-0.15,0.02-0.27,0.06-0.41,0.1C37.46,70.6,37.6,70.56,37.74,70.55z"/>
					<path class="st5" d="M37.28,13.27c0.12,0.05,0.24,0.1,0.35,0.14C37.52,13.37,37.4,13.32,37.28,13.27z"/>
					<path class="st5" d="M37.45,11.35c-0.01,0-0.02,0-0.03-0.01c-0.05-0.03-0.09-0.07-0.14-0.11
						C37.34,11.29,37.39,11.33,37.45,11.35z"/>
					<rect x="37.34" y="35.66" class="st5" width="0.01" height="33.15"/>
					<path class="st5" d="M37.34,68.81L37.34,68.81c-0.01,0.01-0.03,0.01-0.04,0.01C37.32,68.82,37.34,68.81,37.34,68.81z"/>
					<path class="st2" d="M37.34,35.66v33.15c-0.01,0-0.03,0.01-0.04,0.01c-0.17,0.03-0.32,0.07-0.49,0.13
						c-0.15,0.04-0.3,0.1-0.45,0.17c-0.01,0-0.01,0-0.01,0c-0.58,0.23-1.09,0.58-1.53,1.02c-0.04,0.04-0.08,0.08-0.11,0.13
						c-0.24,0.24-0.45,0.51-0.61,0.8l-22.1-9.78l0.03-0.16c0.06-0.31,0.1-0.62,0.1-0.94c0-1.34-0.55-2.53-1.41-3.41
						c-0.44-0.44-0.96-0.79-1.55-1.03c-0.16-0.07-0.32-0.13-0.49-0.18c-0.11-0.04-0.22-0.07-0.34-0.09
						c-0.05-0.01-0.09-0.02-0.14-0.03v-29.3c0.62-0.11,1.22-0.35,1.73-0.69c0.53-0.34,0.98-0.79,1.35-1.32L37.34,35.66z"/>
					<path class="st5" d="M37.28,70.65c-0.12,0.05-0.26,0.1-0.39,0.16C37.02,70.75,37.15,70.69,37.28,70.65z"/>
					<path class="st5" d="M36.87,13.08c0.13,0.07,0.27,0.14,0.42,0.2C37.14,13.21,37,13.15,36.87,13.08z"/>
					<path class="st5" d="M36.47,12.83c0.13,0.09,0.26,0.17,0.4,0.24C36.73,13,36.59,12.92,36.47,12.83z"/>
					<path class="st5" d="M36.87,70.83c-0.13,0.07-0.26,0.14-0.37,0.23C36.61,70.97,36.74,70.89,36.87,70.83z"/>
					<path class="st5" d="M36.82,68.95c-0.15,0.04-0.3,0.1-0.45,0.17C36.52,69.05,36.66,68.99,36.82,68.95z"/>
					<path class="st5" d="M36.55,10.42c0.06,0.09,0.11,0.17,0.17,0.24C36.65,10.58,36.61,10.51,36.55,10.42z"/>
					<path class="st5" d="M36.48,10.29c0.02,0.05,0.05,0.09,0.07,0.13C36.53,10.38,36.5,10.33,36.48,10.29z"/>
					<path class="st5" d="M36.49,71.05c-0.13,0.1-0.24,0.18-0.35,0.29C36.24,71.23,36.36,71.14,36.49,71.05z"/>
					<path class="st5" d="M36.14,71.35c-0.11,0.11-0.22,0.22-0.31,0.35c0.07-0.11,0.15-0.2,0.25-0.3
						C36.1,71.37,36.12,71.35,36.14,71.35z"/>
					<path class="st5" d="M36.36,69.11c-0.31,0.14-0.6,0.3-0.88,0.5c-0.27,0.19-0.53,0.41-0.76,0.65c0.03-0.05,0.07-0.09,0.11-0.13
						C35.27,69.7,35.78,69.35,36.36,69.11z"/>
					<path class="st5" d="M35.66,12.14c0.03,0.04,0.07,0.08,0.1,0.11h-0.01C35.72,12.21,35.69,12.18,35.66,12.14z"/>
					<path class="st5" d="M35.34,11.76c0.1,0.14,0.2,0.26,0.32,0.38C35.54,12.03,35.43,11.9,35.34,11.76z"/>
					<path class="st5" d="M35.83,71.69c-0.19,0.24-0.34,0.53-0.44,0.82c-0.02,0.06-0.05,0.11-0.08,0.16
						C35.42,72.31,35.59,71.99,35.83,71.69z"/>
					<path class="st5" d="M35.05,11.33c0.09,0.15,0.18,0.28,0.27,0.41C35.22,11.62,35.12,11.48,35.05,11.33z"/>
					<path class="st5" d="M35.05,11.33l-23.01,8.68c-0.1-0.6-0.32-1.17-0.62-1.67l23-8.67C34.51,10.27,34.73,10.84,35.05,11.33z"/>
					<path class="st5" d="M34.72,70.26c-0.22,0.24-0.43,0.51-0.6,0.8h-0.01C34.27,70.77,34.48,70.51,34.72,70.26z"/>
					<path class="st5" d="M12.01,61.29l22.1,9.78c-0.31,0.5-0.53,1.06-0.62,1.66l-22.2-9.81c0.53-0.78,0.83-1.71,0.83-2.72
						c0-1.34-0.54-2.53-1.41-3.41c-0.44-0.43-0.96-0.79-1.53-1.03c0.59,0.24,1.11,0.59,1.55,1.03c0.87,0.88,1.41,2.08,1.41,3.41
						c0,0.32-0.04,0.63-0.1,0.94L12.01,61.29z"/>
					<path class="st5" d="M12.04,20.02c0.05,0.27,0.08,0.55,0.08,0.85c0,0.56-0.1,1.09-0.27,1.58l-0.57-0.25
						C10.82,22,10.3,22.2,10.1,22.65c-0.23,0.55-0.63,0.99-1.12,1.32c-0.48,0.31-1.03,0.49-1.64,0.5H7.31
						c-0.49,0-0.88,0.4-0.88,0.88v0.26c-0.97-0.17-1.86-0.66-2.53-1.34c-0.89-0.88-1.42-2.08-1.42-3.4c0-1.34,0.54-2.54,1.42-3.41
						c0.86-0.88,2.06-1.42,3.39-1.42c1.33,0,2.54,0.55,3.41,1.42c0.27,0.27,0.51,0.57,0.71,0.9l-0.74,0.28
						c-0.47,0.18-0.7,0.69-0.53,1.14C9.99,19.36,9.75,19,9.45,18.7c-0.55-0.54-1.31-0.89-2.16-0.89c-0.83,0-1.6,0.34-2.15,0.89
						c-0.55,0.56-0.89,1.31-0.89,2.16c0,0.83,0.33,1.59,0.89,2.14c0.55,0.56,1.3,0.89,2.15,0.89c0.83,0,1.58-0.32,2.12-0.85
						l0.04-0.04c0.55-0.55,0.89-1.31,0.89-2.14c0-0.39-0.07-0.76-0.2-1.09c0.18,0.47,0.68,0.69,1.15,0.53L12.04,20.02z"/>
					<path class="st5" d="M12.04,20.02L11.3,20.3c-0.47,0.17-0.97-0.06-1.15-0.53c-0.17-0.45,0.06-0.96,0.53-1.14l0.74-0.28
						C11.71,18.85,11.94,19.41,12.04,20.02z"/>
					<path class="st5" d="M11.27,22.19l0.57,0.25c-0.23,0.69-0.63,1.32-1.14,1.82l-0.06,0.05c-0.87,0.84-2.05,1.36-3.35,1.36
						c-0.29,0-0.58-0.03-0.86-0.08v-0.26c0-0.48,0.39-0.88,0.88-0.88h0.03c0.6-0.01,1.16-0.19,1.64-0.5
						c0.49-0.32,0.89-0.77,1.12-1.32C10.3,22.2,10.82,22,11.27,22.19z"/>
					<path class="st5" d="M12.12,60.19c0,1.01-0.3,1.94-0.83,2.72l-0.73-0.32c-0.45-0.19-0.65-0.71-0.46-1.17l0.01-0.02
						c0.08-0.19,0.14-0.38,0.19-0.58l0.01-0.04c0.03-0.19,0.06-0.38,0.06-0.6c0-0.85-0.34-1.6-0.9-2.15H9.45
						c-0.07-0.08-0.13-0.15-0.21-0.2c-0.14-0.14-0.3-0.23-0.48-0.33c-0.01,0-0.02-0.01-0.03-0.01c-0.16-0.1-0.34-0.17-0.54-0.22
						c-0.27-0.09-0.57-0.14-0.89-0.14c-0.01,0-0.01,0-0.02,0c-0.48-0.01-0.86-0.42-0.86-0.89v-0.82c0.28-0.05,0.56-0.08,0.86-0.08
						c0.31,0,0.62,0.03,0.91,0.09c0.05,0.01,0.09,0.02,0.14,0.03c0.12,0.03,0.23,0.06,0.34,0.09c0.17,0.05,0.33,0.11,0.49,0.18
						c0.58,0.24,1.09,0.6,1.53,1.03C11.58,57.65,12.12,58.85,12.12,60.19z"/>
					<path class="st5" d="M10.56,62.58l0.73,0.32c-0.18,0.24-0.37,0.48-0.58,0.69l-0.06,0.05c-0.87,0.85-2.05,1.37-3.35,1.37
						c-1.32,0-2.52-0.55-3.39-1.41c-0.89-0.88-1.42-2.09-1.42-3.41c0-1.34,0.54-2.53,1.42-3.41c0.67-0.67,1.55-1.16,2.53-1.34v0.82
						c0,0.47,0.38,0.88,0.86,0.89c-0.83,0-1.6,0.33-2.15,0.89c-0.55,0.55-0.89,1.31-0.89,2.15c0,0.84,0.33,1.6,0.89,2.15
						c0.55,0.55,1.3,0.9,2.15,0.9c0.83,0,1.58-0.33,2.12-0.86l0.04-0.04c0.55-0.55,0.89-1.31,0.89-2.15c0-0.84-0.34-1.6-0.89-2.15
						h0.01c0.55,0.55,0.9,1.31,0.9,2.15c0,0.21-0.03,0.41-0.06,0.6l-0.01,0.04c-0.04,0.19-0.11,0.39-0.19,0.58l-0.01,0.02
						C9.9,61.87,10.11,62.39,10.56,62.58z"/>
					<path class="st2" d="M10.15,19.77c0.13,0.33,0.2,0.7,0.2,1.09c0,0.83-0.34,1.59-0.89,2.14l-0.04,0.04
						c-0.55,0.53-1.29,0.85-2.12,0.85c-0.84,0-1.6-0.33-2.15-0.89c-0.55-0.55-0.89-1.31-0.89-2.14c0-0.86,0.33-1.61,0.89-2.16
						c0.55-0.54,1.32-0.89,2.15-0.89c0.85,0,1.61,0.34,2.16,0.89C9.75,19,9.99,19.36,10.15,19.77z"/>
					<path class="st5" d="M8.76,57.51c0.18,0.1,0.33,0.2,0.48,0.33C9.08,57.71,8.93,57.6,8.76,57.51z"/>
					<path class="st5" d="M8.68,55.57c-0.11-0.03-0.22-0.06-0.34-0.09C8.46,55.5,8.58,55.53,8.68,55.57z"/>
					<path class="st5" d="M8.73,57.5c-0.16-0.09-0.35-0.16-0.54-0.22C8.39,57.33,8.57,57.4,8.73,57.5z"/>
				</g>
			</g>
		</g>
	</g>
</g>
</svg>
