<svg xmlns="http://www.w3.org/2000/svg" viewBox="0 0 72.82 73.41"><path d="M72.06,81H2.6a.61.61,0,0,1-.6-.62V59.69a.61.61,0,0,1,.6-.62H35.12a.56.56,0,0,1,.42.18l2.91,3a.65.65,0,0,1,0,.88.59.59,0,0,1-.85,0l-2.73-2.84H3.2V79.76H72.06a.62.62,0,0,1,0,1.24Z" transform="translate(-2 -7.59)"/><path d="M74.22,81H54.3a.61.61,0,0,1-.6-.62V8.22a.62.62,0,0,1,.6-.63H74.22a.62.62,0,0,1,.6.63V80.38A.61.61,0,0,1,74.22,81ZM54.9,79.76H73.62V8.84H54.9Z" transform="translate(-2 -7.59)"/><path d="M74.22,19.94H54.3a.61.61,0,0,1-.6-.62.61.61,0,0,1,.6-.62H74.22a.61.61,0,0,1,.6.62A.61.61,0,0,1,74.22,19.94Z" transform="translate(-2 -7.59)"/><path d="M74.22,32.05H54.3a.62.62,0,0,1,0-1.24H74.22a.62.62,0,0,1,0,1.24Z" transform="translate(-2 -7.59)"/><path d="M74.22,44.16H54.3a.62.62,0,0,1,0-1.24H74.22a.62.62,0,0,1,0,1.24Z" transform="translate(-2 -7.59)"/><path d="M74.22,56.27H54.3a.62.62,0,0,1,0-1.24H74.22a.62.62,0,0,1,0,1.24Z" transform="translate(-2 -7.59)"/><path d="M74.22,68.38H54.3a.61.61,0,0,1-.6-.62.61.61,0,0,1,.6-.62H74.22a.61.61,0,0,1,.6.62A.61.61,0,0,1,74.22,68.38Z" transform="translate(-2 -7.59)"/><path d="M64.26,76.84a2.39,2.39,0,1,1,2.3-2.39A2.35,2.35,0,0,1,64.26,76.84Zm0-3.54a1.15,1.15,0,1,0,1.1,1.15A1.13,1.13,0,0,0,64.26,73.3Z" transform="translate(-2 -7.59)"/><path d="M54.3,80.24a.58.58,0,0,1-.42-.18L5.31,29.61a.65.65,0,0,1,0-.88L19.39,14.09a.6.6,0,0,1,.84,0L54.72,49.92a.62.62,0,0,1,.18.44V79.62a.62.62,0,0,1-.37.57A.46.46,0,0,1,54.3,80.24ZM6.58,29.17l47.12,49V50.62L19.81,15.41Z" transform="translate(-2 -7.59)"/><path d="M13.29,37.64a.58.58,0,0,1-.42-.18.63.63,0,0,1,0-.88L27,21.94a.58.58,0,0,1,.84,0,.63.63,0,0,1,0,.88L13.71,37.46A.58.58,0,0,1,13.29,37.64Z" transform="translate(-2 -7.59)"/><path d="M21.53,46.2a.58.58,0,0,1-.42-.18.63.63,0,0,1,0-.88L35.19,30.51a.59.59,0,0,1,.85,0,.65.65,0,0,1,0,.88L22,46A.58.58,0,0,1,21.53,46.2Z" transform="translate(-2 -7.59)"/><path d="M29.78,54.77a.58.58,0,0,1-.42-.18.63.63,0,0,1,0-.88L43.44,39.07a.58.58,0,0,1,.84,0,.63.63,0,0,1,0,.88L30.2,54.59A.58.58,0,0,1,29.78,54.77Z" transform="translate(-2 -7.59)"/><path d="M38,63.33a.59.59,0,0,1-.42-.18.65.65,0,0,1,0-.88L51.68,47.64a.59.59,0,0,1,.85,0,.65.65,0,0,1,0,.88L38.45,63.15A.6.6,0,0,1,38,63.33Z" transform="translate(-2 -7.59)"/><path d="M46.26,71.89a.59.59,0,0,1-.42-.18.65.65,0,0,1,0-.88l8-8.35a.58.58,0,0,1,.84,0,.63.63,0,0,1,0,.88l-8,8.35A.6.6,0,0,1,46.26,71.89Z" transform="translate(-2 -7.59)"/><path d="M13.29,81a.61.61,0,0,1-.6-.62V59.69a.6.6,0,1,1,1.2,0V80.38A.61.61,0,0,1,13.29,81Z" transform="translate(-2 -7.59)"/><path d="M25,81a.61.61,0,0,1-.6-.62V59.69a.6.6,0,1,1,1.2,0V80.38A.61.61,0,0,1,25,81Z" transform="translate(-2 -7.59)"/><path d="M36.6,81a.6.6,0,0,1-.59-.62V61.24a.6.6,0,0,1,.59-.62.61.61,0,0,1,.6.62V80.38A.61.61,0,0,1,36.6,81Z" transform="translate(-2 -7.59)"/><path d="M48.26,81a.61.61,0,0,1-.6-.62v-7a.6.6,0,1,1,1.2,0v7A.61.61,0,0,1,48.26,81Z" transform="translate(-2 -7.59)"/></svg>