<svg xmlns="http://www.w3.org/2000/svg" viewBox="0 0 60.17 79.16"><defs><style>.a{fill:none;stroke:#000;stroke-linecap:round;stroke-linejoin:round;stroke-width:1.3px;}</style></defs><path class="a" d="M64.94,2.08c.11.08,0,.78-.37,2.11-1,3.59-4.06,10.5-9.58,20.51L50.32,22c5.92-9.79,10.36-15.92,13-18.55C64.26,2.48,64.82,2,64.94,2.08Z" transform="translate(-6.04 -1.42)"/><path class="a" d="M62.74,44.07c3.68,7,3.24,8.85,1.62,15.5l-.48,2a38.23,38.23,0,0,1-2.43,7.58,12,12,0,0,1-5,5.59A18.94,18.94,0,0,1,49.56,76a26.56,26.56,0,0,0-7.78,1.32l-.35.14a48.62,48.62,0,0,1-8.18,2.44c-6.56.48-10.17-3.31-14-7.33a47.89,47.89,0,0,0-5.47-5.14c-3.52-2.78-5.62-5.15-6.53-7.83s-.62-5.76.6-10a32.6,32.6,0,0,0,1.22-9c.12-4.64.22-8.05,7.56-14,3.23-2.63,7.88-6.42,12-5.69l.83.15c1.22.28,2.1.55,2.88.78A23.26,23.26,0,0,0,38.26,23c1.13.07,2.42.09,3.77.13a50.2,50.2,0,0,1,7.18.65l.08,0c-.59,1-1.24,2.09-1.45,2.43l-1.08,1.86a2.66,2.66,0,0,0-.36,1.33,3,3,0,0,0,.12.89,3.65,3.65,0,0,1,.81,0,3.18,3.18,0,0,0-.64.11h-.06c-1.63.44-3.62,2.1-5.47,5.29a12.38,12.38,0,0,0-1.61,5.08,12.81,12.81,0,0,0,.15,3.39,8.14,8.14,0,0,1,4.74-2.69c1.34-.38,2.58-.74,3.3-2,1.85-3.19,2.29-5.76,1.86-7.39a.25.25,0,0,1,0-.07,3.12,3.12,0,0,0-.18-.49,3.93,3.93,0,0,1,.35.6,2.67,2.67,0,0,0,.83-.33,2.76,2.76,0,0,0,1-1c.37-.64.73-1.26,1.08-1.88s1.44-2.56,2.06-3.66c.35.28,1.5,1.31,1.81,1.65a7.76,7.76,0,0,1,1.23,1.9,34.61,34.61,0,0,1,2,6.42,36.79,36.79,0,0,0,3,8.75ZM55.36,61c1.41-1.13,2.49-2.56,2.49-3.88a2.87,2.87,0,0,0-1.57-2.82,7.33,7.33,0,0,0-3.22-.53,7.69,7.69,0,0,0-3.28.53,2.83,2.83,0,0,0-1.65,2.82l0,1.14,0,1.22c0,2,.35,3.64,2.5,3.64A8.87,8.87,0,0,0,55.36,61ZM43,68.14c1.39-1.13,2.48-2.57,2.48-3.88a2.81,2.81,0,0,0-1.58-2.8,7,7,0,0,0-3.21-.54,7.73,7.73,0,0,0-3.28.52,2.84,2.84,0,0,0-1.66,2.82l0,1.11v0l0,1.22c0,2,.35,3.63,2.5,3.63A8.91,8.91,0,0,0,43,68.14Zm-14.36-29C30,38,31.12,36.55,31.12,35.24a2.87,2.87,0,0,0-1.57-2.82,7.35,7.35,0,0,0-3.22-.54,7.72,7.72,0,0,0-3.28.54,2.85,2.85,0,0,0-1.66,2.82l0,1.14,0,1.22c0,1.95.35,3.63,2.5,3.63A8.85,8.85,0,0,0,28.64,39.11Zm-.17,26.16C29.88,64.14,31,62.71,31,61.39a2.83,2.83,0,0,0-1.56-2.81A7.35,7.35,0,0,0,26.17,58a7.74,7.74,0,0,0-3.29.54,2.83,2.83,0,0,0-1.65,2.81l0,1.12h0l0,1.23c0,2,.36,3.63,2.51,3.63A8.85,8.85,0,0,0,28.47,65.27Zm-5.2-13.45c1.41-1.12,2.48-2.56,2.48-3.89a2.82,2.82,0,0,0-1.56-2.79A7.21,7.21,0,0,0,21,44.6a7.72,7.72,0,0,0-3.28.53A2.81,2.81,0,0,0,16,47.93l0,1.13v0l0,1.22c0,2,.35,3.64,2.5,3.64A8.87,8.87,0,0,0,23.27,51.82Z" transform="translate(-6.04 -1.42)"/><path class="a" d="M57.85,57.09c0,1.32-1.08,2.75-2.49,3.88a8.87,8.87,0,0,1-4.8,2.12c-2.15,0-2.5-1.68-2.5-3.64l0-1.22,0-1.14a2.83,2.83,0,0,1,1.65-2.82,7.69,7.69,0,0,1,3.28-.53,7.33,7.33,0,0,1,3.22.53A2.87,2.87,0,0,1,57.85,57.09Z" transform="translate(-6.04 -1.42)"/><path class="a" d="M50.32,22,55,24.7c-.07.12-.17.32-.32.58l-5.38-1.52C49.75,23,50.18,22.26,50.32,22Z" transform="translate(-6.04 -1.42)"/><path class="a" d="M49.29,23.76l5.38,1.52c-.62,1.1-1.79,3.17-2.06,3.66l-4.77-2.75C48.05,25.85,48.7,24.75,49.29,23.76Z" transform="translate(-6.04 -1.42)"/><path class="a" d="M47.84,26.19l4.77,2.75c-.35.62-.71,1.24-1.08,1.88a2.76,2.76,0,0,1-1,1,2.67,2.67,0,0,1-.83.33,3.93,3.93,0,0,0-.35-.6v0a2.1,2.1,0,0,0-.85-1,2.07,2.07,0,0,0-1.2-.26h0a3.65,3.65,0,0,0-.81,0,3,3,0,0,1-.12-.89,2.66,2.66,0,0,1,.36-1.33Z" transform="translate(-6.04 -1.42)"/><path class="a" d="M49.6,32.08c.43,1.63,0,4.2-1.86,7.39-.72,1.25-2,1.61-3.3,2a8.14,8.14,0,0,0-4.74,2.69,12.81,12.81,0,0,1-.15-3.39,12.38,12.38,0,0,1,1.61-5.08C43,32.49,45,30.83,46.63,30.39h.06a3.18,3.18,0,0,1,.64-.11h0a3.16,3.16,0,0,1,1.11.37,3.08,3.08,0,0,1,.94.86v0a3.12,3.12,0,0,1,.18.49A.25.25,0,0,0,49.6,32.08Z" transform="translate(-6.04 -1.42)"/><path class="a" d="M49.39,31.5a3.08,3.08,0,0,0-.94-.86,3.16,3.16,0,0,0-1.11-.37,2.07,2.07,0,0,1,1.2.26A2.1,2.1,0,0,1,49.39,31.5Z" transform="translate(-6.04 -1.42)"/><path class="a" d="M45.48,64.26c0,1.31-1.09,2.75-2.48,3.88a8.91,8.91,0,0,1-4.81,2.11c-2.15,0-2.5-1.67-2.5-3.63l0-1.22v0l0-1.11a2.84,2.84,0,0,1,1.66-2.82,7.73,7.73,0,0,1,3.28-.52,7,7,0,0,1,3.21.54A2.81,2.81,0,0,1,45.48,64.26Z" transform="translate(-6.04 -1.42)"/><path class="a" d="M31.12,35.24c0,1.31-1.09,2.75-2.48,3.87a8.85,8.85,0,0,1-4.81,2.12c-2.15,0-2.5-1.68-2.5-3.63l0-1.22,0-1.14a2.85,2.85,0,0,1,1.66-2.82,7.72,7.72,0,0,1,3.28-.54,7.35,7.35,0,0,1,3.22.54A2.87,2.87,0,0,1,31.12,35.24Z" transform="translate(-6.04 -1.42)"/><path class="a" d="M31,61.39c0,1.32-1.07,2.75-2.48,3.88a8.85,8.85,0,0,1-4.8,2.11c-2.15,0-2.51-1.67-2.51-3.63l0-1.23h0l0-1.12a2.83,2.83,0,0,1,1.65-2.81A7.74,7.74,0,0,1,26.17,58a7.35,7.35,0,0,1,3.22.54A2.83,2.83,0,0,1,31,61.39Z" transform="translate(-6.04 -1.42)"/><path class="a" d="M25.75,47.93c0,1.33-1.07,2.77-2.48,3.89a8.87,8.87,0,0,1-4.8,2.12c-2.15,0-2.5-1.67-2.5-3.64l0-1.22v0l0-1.13a2.81,2.81,0,0,1,1.65-2.8A7.72,7.72,0,0,1,21,44.6a7.21,7.21,0,0,1,3.22.54A2.82,2.82,0,0,1,25.75,47.93Z" transform="translate(-6.04 -1.42)"/><path class="a" d="M21,44.6a7.21,7.21,0,0,1,3.22.54,2.82,2.82,0,0,1,1.56,2.79c0,1.33-1.07,2.77-2.48,3.89a8.87,8.87,0,0,1-4.8,2.12c-2.15,0-2.5-1.67-2.5-3.64l0-1.22v0l0-1.13a2.81,2.81,0,0,1,1.65-2.8A7.72,7.72,0,0,1,21,44.6Z" transform="translate(-6.04 -1.42)"/><path class="a" d="M29.55,32.42a2.87,2.87,0,0,1,1.57,2.82c0,1.31-1.09,2.75-2.48,3.87a8.85,8.85,0,0,1-4.81,2.12c-2.15,0-2.5-1.68-2.5-3.63l0-1.22,0-1.14a2.85,2.85,0,0,1,1.66-2.82,7.72,7.72,0,0,1,3.28-.54A7.35,7.35,0,0,1,29.55,32.42Z" transform="translate(-6.04 -1.42)"/><path class="a" d="M26.17,58a7.35,7.35,0,0,1,3.22.54A2.83,2.83,0,0,1,31,61.39c0,1.32-1.07,2.75-2.48,3.88a8.85,8.85,0,0,1-4.8,2.11c-2.15,0-2.51-1.67-2.51-3.63l0-1.23h0l0-1.12a2.83,2.83,0,0,1,1.65-2.81A7.74,7.74,0,0,1,26.17,58Z" transform="translate(-6.04 -1.42)"/><path class="a" d="M40.69,60.92a7,7,0,0,1,3.21.54,2.81,2.81,0,0,1,1.58,2.8c0,1.31-1.09,2.75-2.48,3.88a8.91,8.91,0,0,1-4.81,2.11c-2.15,0-2.5-1.67-2.5-3.63l0-1.22v0l0-1.11a2.84,2.84,0,0,1,1.66-2.82A7.73,7.73,0,0,1,40.69,60.92Z" transform="translate(-6.04 -1.42)"/><path class="a" d="M53.06,53.74a7.33,7.33,0,0,1,3.22.53,2.87,2.87,0,0,1,1.57,2.82c0,1.32-1.08,2.75-2.49,3.88a8.87,8.87,0,0,1-4.8,2.12c-2.15,0-2.5-1.68-2.5-3.64l0-1.22,0-1.14a2.83,2.83,0,0,1,1.65-2.82A7.69,7.69,0,0,1,53.06,53.74Z" transform="translate(-6.04 -1.42)"/><path class="a" d="M49.21,23.74A50.2,50.2,0,0,0,42,23.09c-1.35,0-2.64-.06-3.77-.13a23.26,23.26,0,0,1-5.92-1.09c-.78-.23-1.66-.5-2.88-.78l-.83-.15c-4.15-.73-8.8,3.06-12,5.69-7.34,6-7.44,9.4-7.56,14a32.6,32.6,0,0,1-1.22,9c-1.22,4.21-1.5,7.29-.6,10s3,5.05,6.53,7.83a47.89,47.89,0,0,1,5.47,5.14c3.86,4,7.47,7.81,14,7.33a48.62,48.62,0,0,0,8.18-2.44l.35-.14A26.56,26.56,0,0,1,49.56,76a18.94,18.94,0,0,0,6.94-1.29,12,12,0,0,0,5-5.59,38.23,38.23,0,0,0,2.43-7.58l.48-2c1.62-6.65,2.06-8.46-1.62-15.5l0-.07a36.79,36.79,0,0,1-3-8.75,34.61,34.61,0,0,0-2-6.42,7.76,7.76,0,0,0-1.23-1.9c-.31-.34-1.46-1.37-1.81-1.65" transform="translate(-6.04 -1.42)"/><path class="a" d="M47.33,30.27a3.18,3.18,0,0,0-.64.11h-.06c-1.63.44-3.62,2.1-5.47,5.29a12.38,12.38,0,0,0-1.61,5.08,12.81,12.81,0,0,0,.15,3.39,8.14,8.14,0,0,1,4.74-2.69c1.34-.38,2.58-.74,3.3-2,1.85-3.19,2.29-5.76,1.86-7.39a.25.25,0,0,1,0-.07,3.12,3.12,0,0,0-.18-.49" transform="translate(-6.04 -1.42)"/><path class="a" d="M47.84,26.19l-1.08,1.86a2.66,2.66,0,0,0-.36,1.33,3,3,0,0,0,.12.89,3.65,3.65,0,0,1,.81,0h0a3.16,3.16,0,0,1,1.11.37,3.08,3.08,0,0,1,.94.86v0a3.93,3.93,0,0,1,.35.6,2.67,2.67,0,0,0,.83-.33,2.76,2.76,0,0,0,1-1c.37-.64.73-1.26,1.08-1.88" transform="translate(-6.04 -1.42)"/><path class="a" d="M50.32,22c-.14.25-.57,1-1,1.75-.59,1-1.24,2.09-1.45,2.43l4.77,2.75c.27-.49,1.44-2.56,2.06-3.66.15-.26.25-.46.32-.58" transform="translate(-6.04 -1.42)"/><path class="a" d="M50.32,22,55,24.7c5.52-10,8.61-16.92,9.58-20.51.37-1.33.48-2,.37-2.11s-.68.4-1.64,1.38C60.68,6.09,56.24,12.22,50.32,22Z" transform="translate(-6.04 -1.42)"/></svg>