<svg xmlns="http://www.w3.org/2000/svg" viewBox="0 0 63.24 79.16"><defs><style>.a{fill:none;stroke:#000;stroke-linecap:round;stroke-linejoin:round;stroke-width:1.3px;}</style></defs><path d="M35.5,62.18A16.86,16.86,0,0,1,20.91,53.8L5.58,27.25a.67.67,0,0,1-.07-.5.7.7,0,0,1,.31-.39L34.35,9.89a.65.65,0,0,1,.66,0l3.14,1.87L38,8.2a.65.65,0,0,1,.32-.59l8.75-5.05a.65.65,0,0,1,.49-.07.69.69,0,0,1,.4.31L63.47,29.69a16.41,16.41,0,0,1-6,22.38L43.84,60A16.75,16.75,0,0,1,35.5,62.18ZM7,27.16l15,26a15.52,15.52,0,0,0,21.15,5.67L56.82,51a15.1,15.1,0,0,0,5.52-20.6L47.14,4,39.3,8.54l.21,4.38a.66.66,0,0,1-.32.59.67.67,0,0,1-.67,0l-3.85-2.3Z" transform="translate(-5.49 -2.47)"/><path d="M22,55a.64.64,0,0,1-.56-.32l-3.79-6.56a.67.67,0,0,1-.07-.5.65.65,0,0,1,.3-.39l41.2-23.79a.65.65,0,0,1,.89.24l3.79,6.56a.65.65,0,0,1,.07.49.69.69,0,0,1-.31.4L22.34,54.93A.67.67,0,0,1,22,55Zm-2.9-7,3.14,5.44L62.32,30.34,59.18,24.9Z" transform="translate(-5.49 -2.47)"/><path d="M60.39,81.63a7.31,7.31,0,0,1-6.82-4.1l-6.79-14.8a.66.66,0,0,1,.27-.84L57.21,56a.64.64,0,0,1,.85.18L67.49,69.5a6.94,6.94,0,0,1,1.07,5.58,8.46,8.46,0,0,1-4,5.44A8.36,8.36,0,0,1,60.39,81.63ZM48.21,62.72,54.75,77a6,6,0,0,0,5.64,3.34,7.09,7.09,0,0,0,3.54-.93,7.17,7.17,0,0,0,3.36-4.6,5.68,5.68,0,0,0-.86-4.55l-9.08-12.8Z" transform="translate(-5.49 -2.47)"/><path d="M60.51,77a3.54,3.54,0,1,1,1.77-.47A3.58,3.58,0,0,1,60.51,77Zm0-5.79a2.21,2.21,0,0,0-1.12.3,2.25,2.25,0,0,0-.82,3.07,2.3,2.3,0,0,0,3.07.82,2.24,2.24,0,0,0,.83-3.07A2.27,2.27,0,0,0,60.5,71.23Z" transform="translate(-5.49 -2.47)"/><path d="M45.7,64a1.34,1.34,0,0,1-1.18-.7l-1.58-2.72a1.37,1.37,0,0,1,.5-1.87L56.22,51.3a1.41,1.41,0,0,1,1.87.49l1.58,2.74a1.36,1.36,0,0,1-.51,1.87L46.38,63.77A1.34,1.34,0,0,1,45.7,64ZM57,52.44,44.09,59.8l1.61,2.86h0l12.79-7.38Z" transform="translate(-5.49 -2.47)"/><path d="M17.28,44.06a3.32,3.32,0,0,1-2.93-1.63L5.58,27.25a.67.67,0,0,1-.07-.5.7.7,0,0,1,.31-.39L34.35,9.89a.67.67,0,0,1,.67,0l3.07,1.91L38,8.19a.65.65,0,0,1,.32-.58l8.75-5.05a.65.65,0,0,1,.89.24l2,3.45A3.51,3.51,0,0,1,48.49,11a3.82,3.82,0,0,1-2.41.48l1,1.75a3.21,3.21,0,0,1,.3,2.49,3.73,3.73,0,0,1-1.66,2.2l-.09.06a3.72,3.72,0,0,1-4.15-.3,3.71,3.71,0,0,1-1.69,2.07,3.85,3.85,0,0,1-2.42.48l2.43,4.2a3.26,3.26,0,0,1,.31,2.49,3.81,3.81,0,0,1-3.66,2.76,3.32,3.32,0,0,1-2.89-1.56,3.82,3.82,0,0,1-4,2.33,3.54,3.54,0,0,1-1.49,4.68,3.83,3.83,0,0,1-1.89.51A3.32,3.32,0,0,1,23.22,34l-.76-1.31A3.71,3.71,0,0,1,18.35,35l.17.29c.48.8,1.17,1.94,2.11,3.57a3.21,3.21,0,0,1,.3,2.49,3.72,3.72,0,0,1-1.75,2.25A3.86,3.86,0,0,1,17.28,44.06ZM7,27.16l8.45,14.62a2.25,2.25,0,0,0,3.05.64A2.39,2.39,0,0,0,19.68,41a2,2,0,0,0-.18-1.5c-.93-1.62-1.62-2.76-2.09-3.55-1-1.73-1.15-1.91-.91-2.34a.78.78,0,0,1,.62-.35,1.53,1.53,0,0,1,.6.17,3,3,0,0,0,2.47,0,2.44,2.44,0,0,0,1.15-1.47,2,2,0,0,0-.17-1.5h0a.65.65,0,1,1,1.12-.65h0l2.05,3.55A2.28,2.28,0,0,0,27.4,34a2.22,2.22,0,0,0,1-3l-1.25-2.17h0a.65.65,0,1,1,1.12-.66h0a2.28,2.28,0,0,0,3.06.63,2.22,2.22,0,0,0,1-3h0a.65.65,0,0,1,.24-.89.64.64,0,0,1,.88.24h0l1.25,2.18a2.27,2.27,0,0,0,3.06.64,2.42,2.42,0,0,0,1.15-1.46,1.94,1.94,0,0,0-.18-1.5L35,18.62h0a.65.65,0,0,1,.24-.89.64.64,0,0,1,.88.24h0a2.29,2.29,0,0,0,3.06.65,2.23,2.23,0,0,0,1-3h0a1.22,1.22,0,0,1-.07-.17h0a.64.64,0,0,1,.32-.68l.08,0a.57.57,0,0,1,.46,0h0a.62.62,0,0,1,.31.27h0l.68,1.19a2.27,2.27,0,0,0,3,.69l.07-.05a2.39,2.39,0,0,0,1.15-1.46,2,2,0,0,0-.18-1.5l-2.3-4a.66.66,0,0,1,.23-.9.65.65,0,0,1,.89.23,2.27,2.27,0,0,0,3.06.65,2.24,2.24,0,0,0,1-3L47.14,4,39.29,8.54,39.43,13a.66.66,0,0,1-.32.58.67.67,0,0,1-.67,0l-3.78-2.34Z" transform="translate(-5.49 -2.47)"/><path class="a" d="M7.5,44.14" transform="translate(-5.49 -2.47)"/><path class="a" d="M8.21,62" transform="translate(-5.49 -2.47)"/><path class="a" d="M7.62,76.58" transform="translate(-5.49 -2.47)"/></svg>