<svg xmlns="http://www.w3.org/2000/svg" viewBox="0 0 71.32 71.32"><defs><style>.a{fill:none;fill-rule:evenodd;}</style></defs><path d="M40.85,77.56h-5a.58.58,0,0,1-.58-.5l-1.39-9.27a26.55,26.55,0,0,1-4.57-1.22L23.44,73.9a.59.59,0,0,1-.75.15l-4.36-2.52a.6.6,0,0,1-.26-.72l3.44-8.74a26.35,26.35,0,0,1-3.34-3.34L9.44,62.16a.59.59,0,0,1-.73-.25L6.2,57.55a.57.57,0,0,1,.14-.75L13.67,51a26.55,26.55,0,0,1-1.22-4.57L3.18,45a.59.59,0,0,1-.5-.58v-5a.59.59,0,0,1,.5-.58l9.27-1.39a26.79,26.79,0,0,1,1.22-4.57L6.34,27a.57.57,0,0,1-.14-.75l2.51-4.36a.59.59,0,0,1,.73-.25l8.73,3.43a26.35,26.35,0,0,1,3.34-3.34L18.07,13a.6.6,0,0,1,.26-.72l4.36-2.52a.59.59,0,0,1,.75.15l5.84,7.33A26.55,26.55,0,0,1,33.85,16l1.39-9.27a.58.58,0,0,1,.58-.5h5a.58.58,0,0,1,.58.5L42.83,16a27,27,0,0,1,4.57,1.22L53.24,9.9A.59.59,0,0,1,54,9.75l4.36,2.52a.58.58,0,0,1,.25.72l-3.43,8.74a26.35,26.35,0,0,1,3.34,3.34l8.73-3.43a.58.58,0,0,1,.72.25l2.52,4.36a.57.57,0,0,1-.14.75L63,32.84a26.16,26.16,0,0,1,1.23,4.57L73.5,38.8a.59.59,0,0,1,.5.58v5a.59.59,0,0,1-.5.58l-9.27,1.39A26.16,26.16,0,0,1,63,51l7.34,5.84a.57.57,0,0,1,.14.75L68,61.91a.58.58,0,0,1-.72.25l-8.73-3.43a26.35,26.35,0,0,1-3.34,3.34l3.43,8.74a.58.58,0,0,1-.25.72L54,74a.6.6,0,0,1-.75-.14L47.4,66.57a25.5,25.5,0,0,1-4.57,1.22l-1.4,9.27A.58.58,0,0,1,40.85,77.56Zm-4.52-1.17h4l1.38-9.2a.59.59,0,0,1,.49-.49,24.6,24.6,0,0,0,5.16-1.38.59.59,0,0,1,.67.19l5.79,7.26,3.49-2L53.92,62.1a.59.59,0,0,1,.18-.67,24.89,24.89,0,0,0,3.77-3.77.59.59,0,0,1,.67-.18l8.66,3.41,2-3.49-7.27-5.79a.59.59,0,0,1-.18-.67,24.84,24.84,0,0,0,1.38-5.15.57.57,0,0,1,.49-.49l9.2-1.39v-4l-9.2-1.39a.57.57,0,0,1-.49-.49,24.84,24.84,0,0,0-1.38-5.15.59.59,0,0,1,.18-.67l7.27-5.79-2-3.49-8.66,3.41a.59.59,0,0,1-.67-.18,24.89,24.89,0,0,0-3.77-3.77.59.59,0,0,1-.18-.67L57.33,13l-3.49-2-5.79,7.27a.59.59,0,0,1-.67.19,24.44,24.44,0,0,0-5.16-1.38.59.59,0,0,1-.49-.5L40.35,7.41h-4L34.94,16.6a.57.57,0,0,1-.48.5,24.12,24.12,0,0,0-5.16,1.38.59.59,0,0,1-.67-.19L22.84,11l-3.49,2,3.41,8.67a.59.59,0,0,1-.18.67,24,24,0,0,0-3.77,3.77.6.6,0,0,1-.67.18L9.48,22.91l-2,3.49,7.27,5.78a.58.58,0,0,1,.19.67A24.6,24.6,0,0,0,13.54,38a.57.57,0,0,1-.5.49L3.85,39.89v4L13,45.3a.57.57,0,0,1,.5.49,24.79,24.79,0,0,0,1.38,5.15.59.59,0,0,1-.18.67L7.46,57.4l2,3.49,8.66-3.41a.6.6,0,0,1,.67.18,24,24,0,0,0,3.77,3.77.59.59,0,0,1,.18.67l-3.41,8.67,3.49,2,5.79-7.28a.59.59,0,0,1,.67-.18,24.19,24.19,0,0,0,5.15,1.38.57.57,0,0,1,.49.49Z" transform="translate(-2.68 -6.24)"/><path d="M38.34,59.36A17.46,17.46,0,1,1,55.8,41.9,17.48,17.48,0,0,1,38.34,59.36Zm0-33.75A16.29,16.29,0,1,0,54.63,41.9,16.31,16.31,0,0,0,38.34,25.61Z" transform="translate(-2.68 -6.24)"/><path class="a" d="M38.34,28.07a1.08,1.08,0,0,1,1.08,1.08,1.08,1.08,0,1,1-2.16,0,1.08,1.08,0,0,1,1.08-1.08" transform="translate(-2.68 -6.24)"/><path class="a" d="M45.25,29.93a1.07,1.07,0,0,1,.4,1.47,1.08,1.08,0,0,1-1.88-1.08,1.08,1.08,0,0,1,1.48-.39" transform="translate(-2.68 -6.24)"/><path class="a" d="M50.31,35a1.07,1.07,0,0,1-.39,1.47A1.08,1.08,0,1,1,50.31,35" transform="translate(-2.68 -6.24)"/><path class="a" d="M52.16,41.9a1.08,1.08,0,1,1-1.08-1.08,1.08,1.08,0,0,1,1.08,1.08" transform="translate(-2.68 -6.24)"/><path class="a" d="M50.31,48.81a1.08,1.08,0,1,1-1.87-1.08,1.08,1.08,0,0,1,1.87,1.08" transform="translate(-2.68 -6.24)"/><path class="a" d="M45.25,53.87a1.08,1.08,0,0,1-1.48-.39,1.08,1.08,0,1,1,1.88-1.08,1.07,1.07,0,0,1-.4,1.47" transform="translate(-2.68 -6.24)"/><path class="a" d="M38.34,55.73a1.08,1.08,0,0,1-1.08-1.08,1.08,1.08,0,0,1,2.16,0,1.08,1.08,0,0,1-1.08,1.08" transform="translate(-2.68 -6.24)"/><path class="a" d="M31.43,53.87A1.08,1.08,0,1,1,32.51,52a1.09,1.09,0,0,1,.39,1.48,1.07,1.07,0,0,1-1.47.39" transform="translate(-2.68 -6.24)"/><path class="a" d="M26.36,48.81a1.08,1.08,0,1,1,1.48.4,1.09,1.09,0,0,1-1.48-.4" transform="translate(-2.68 -6.24)"/><path class="a" d="M24.51,41.9A1.09,1.09,0,1,1,25.59,43a1.08,1.08,0,0,1-1.08-1.08" transform="translate(-2.68 -6.24)"/><path class="a" d="M26.36,35a1.08,1.08,0,0,1,1.88,1.08A1.08,1.08,0,0,1,26.36,35" transform="translate(-2.68 -6.24)"/><path class="a" d="M31.43,29.93a1.07,1.07,0,0,1,1.47.39A1.08,1.08,0,1,1,31,31.4a1.07,1.07,0,0,1,.4-1.47" transform="translate(-2.68 -6.24)"/></svg>